# This file uses centimeters as units for non-parametric coordinates.

mtllib platformForHumanSacrfices.mtl
g default
v -6.962521 12.296554 -17.638477
v 0.334476 12.296554 -17.638477
v -6.962521 12.619832 -17.638477
v 0.334476 12.619832 -17.638477
v -6.962521 12.619832 -21.664378
v 0.334476 12.619832 -21.664378
v -6.962521 12.296554 -21.664378
v 0.334476 12.296554 -21.664378
v -6.962521 14.744267 -17.638477
v 0.334476 14.744267 -17.638477
v -6.962521 14.744267 -21.664378
v 0.334476 14.744267 -21.664378
vt 0.375000 0.000000
vt 0.625000 0.000000
vt 0.375000 0.250000
vt 0.625000 0.250000
vt 0.375000 0.500000
vt 0.625000 0.500000
vt 0.375000 0.750000
vt 0.625000 0.750000
vt 0.375000 1.000000
vt 0.625000 1.000000
vt 0.875000 0.000000
vt 0.875000 0.250000
vt 0.125000 0.000000
vt 0.125000 0.250000
vt 0.000000 0.000000
vt 1.000000 0.000000
vt 1.000000 1.000000
vt 0.000000 1.000000
vt 0.000000 0.000000
vt 1.000000 0.000000
vt 1.000000 1.000000
vt 0.000000 1.000000
vt 0.000000 0.000000
vt 1.000000 0.000000
vt 1.000000 1.000000
vt 0.000000 1.000000
vt 0.000000 0.000000
vt 1.000000 0.000000
vt 1.000000 1.000000
vt 0.000000 1.000000
vn 0.000000 0.000000 1.000000
vn 0.000000 0.000000 1.000000
vn 0.000000 0.000000 1.000000
vn 0.000000 0.000000 1.000000
vn 0.000000 1.000000 0.000000
vn 0.000000 1.000000 0.000000
vn 0.000000 1.000000 0.000000
vn 0.000000 1.000000 0.000000
vn 0.000000 0.000000 -1.000000
vn 0.000000 0.000000 -1.000000
vn 0.000000 0.000000 -1.000000
vn 0.000000 0.000000 -1.000000
vn 0.000000 -1.000000 0.000000
vn 0.000000 -1.000000 0.000000
vn 0.000000 -1.000000 0.000000
vn 0.000000 -1.000000 0.000000
vn 1.000000 0.000000 0.000000
vn 1.000000 0.000000 0.000000
vn 1.000000 0.000000 0.000000
vn 1.000000 0.000000 0.000000
vn -1.000000 0.000000 0.000000
vn -1.000000 0.000000 0.000000
vn -1.000000 0.000000 0.000000
vn -1.000000 0.000000 0.000000
vn 0.000000 0.000000 1.000000
vn 0.000000 0.000000 1.000000
vn 0.000000 0.000000 1.000000
vn 0.000000 0.000000 1.000000
vn 0.000000 0.000000 1.000000
vn 0.000000 0.000000 1.000000
vn 0.000000 0.000000 1.000000
vn 0.000000 0.000000 1.000000
vn 1.000000 0.000000 0.000000
vn 1.000000 0.000000 0.000000
vn 1.000000 0.000000 0.000000
vn 1.000000 0.000000 0.000000
vn 1.000000 0.000000 0.000000
vn 1.000000 0.000000 0.000000
vn 1.000000 0.000000 0.000000
vn 1.000000 0.000000 0.000000
s off
g pCube3
usemtl initialShadingGroup
f 1/1/1 2/2/2 4/4/3 3/3/4
f 3/3/5 4/4/6 6/6/7 5/5/8
f 5/5/9 6/6/10 8/8/11 7/7/12
f 7/7/13 8/8/14 2/10/15 1/9/16
f 2/2/17 8/11/18 6/12/19 4/4/20
f 7/13/21 1/1/22 3/3/23 5/14/24
f 3/15/25 4/16/26 10/17/27 9/18/28
f 5/19/29 6/20/30 12/21/31 11/22/32
f 3/23/33 5/24/34 11/25/35 9/26/36
f 4/27/37 6/28/38 12/29/39 10/30/40
g default
v 0.138967 12.327543 -17.858882
v 0.085619 12.327543 -17.858882
v 0.058945 12.327543 -17.812682
v 0.085619 12.327543 -17.766482
v 0.138967 12.327543 -17.766482
v 0.165640 12.327543 -17.812682
v 0.138967 45.241150 -17.858882
v 0.085619 45.241150 -17.858882
v 0.058945 45.241150 -17.812682
v 0.085619 45.241150 -17.766482
v 0.138967 45.241150 -17.766482
v 0.165640 45.241150 -17.812682
v 0.112293 12.327543 -17.812682
vt 0.578125 0.020934
vt 0.421875 0.020934
vt 0.343750 0.156250
vt 0.421875 0.291566
vt 0.578125 0.291566
vt 0.656250 0.156250
vt 0.375000 0.312500
vt 0.416667 0.312500
vt 0.458333 0.312500
vt 0.500000 0.312500
vt 0.541667 0.312500
vt 0.583333 0.312500
vt 0.625000 0.312500
vt 0.375000 0.688440
vt 0.416667 0.688440
vt 0.458333 0.688440
vt 0.500000 0.688440
vt 0.541667 0.688440
vt 0.583333 0.688440
vt 0.625000 0.688440
vt 0.500000 0.150000
vn 0.000000 0.000000 -1.000000
vn 0.000000 0.000000 -1.000000
vn 0.000000 0.000000 -1.000000
vn 0.000000 0.000000 -1.000000
vn -0.866025 0.000000 -0.500000
vn -0.866025 0.000000 -0.500000
vn -0.866025 0.000000 -0.500000
vn -0.866025 0.000000 -0.500000
vn -0.866026 0.000000 0.500000
vn -0.866026 0.000000 0.500000
vn -0.866026 0.000000 0.500000
vn -0.866026 0.000000 0.500000
vn -0.000000 0.000000 1.000000
vn -0.000000 0.000000 1.000000
vn -0.000000 0.000000 1.000000
vn -0.000000 0.000000 1.000000
vn 0.866025 0.000000 0.500000
vn 0.866025 0.000000 0.500000
vn 0.866025 0.000000 0.500000
vn 0.866025 0.000000 0.500000
vn 0.866026 0.000000 -0.500000
vn 0.866026 0.000000 -0.500000
vn 0.866026 0.000000 -0.500000
vn 0.866026 0.000000 -0.500000
vn 0.000000 -1.000000 0.000021
vn 0.000000 -1.000000 0.000021
vn 0.000000 -1.000000 0.000000
vn 0.000000 -1.000000 0.000000
vn 0.000000 -1.000000 -0.000021
vn 0.000000 -1.000000 -0.000021
vn 0.000000 -1.000000 0.000000
s off
g pasted__pasted__pasted__pCylinder1 pasted__pasted__group2 pasted__group4 group16
usemtl initialShadingGroup
f 13/37/41 14/38/42 20/45/43 19/44/44
f 14/38/45 15/39/46 21/46/47 20/45/48
f 15/39/49 16/40/50 22/47/51 21/46/52
f 16/40/53 17/41/54 23/48/55 22/47/56
f 17/41/57 18/42/58 24/49/59 23/48/60
f 18/42/61 13/43/62 19/50/63 24/49/64
s 1
f 14/32/65 13/31/66 25/51/67
f 15/33/68 14/32/65 25/51/67
f 16/34/69 15/33/68 25/51/67
f 17/35/70 16/34/69 25/51/67
f 18/36/71 17/35/70 25/51/67
f 13/31/66 18/36/71 25/51/67
g default
v 0.138967 12.327543 -21.394704
v 0.085619 12.327543 -21.394704
v 0.058945 12.327543 -21.348503
v 0.085619 12.327543 -21.302303
v 0.138967 12.327543 -21.302303
v 0.165640 12.327543 -21.348503
v 0.138967 45.241150 -21.394704
v 0.085619 45.241150 -21.394704
v 0.058945 45.241150 -21.348503
v 0.085619 45.241150 -21.302303
v 0.138967 45.241150 -21.302303
v 0.165640 45.241150 -21.348503
v 0.112293 12.327543 -21.348503
vt 0.578125 0.020934
vt 0.421875 0.020934
vt 0.343750 0.156250
vt 0.421875 0.291566
vt 0.578125 0.291566
vt 0.656250 0.156250
vt 0.375000 0.312500
vt 0.416667 0.312500
vt 0.458333 0.312500
vt 0.500000 0.312500
vt 0.541667 0.312500
vt 0.583333 0.312500
vt 0.625000 0.312500
vt 0.375000 0.688440
vt 0.416667 0.688440
vt 0.458333 0.688440
vt 0.500000 0.688440
vt 0.541667 0.688440
vt 0.583333 0.688440
vt 0.625000 0.688440
vt 0.500000 0.150000
vn 0.000000 0.000000 -1.000000
vn 0.000000 0.000000 -1.000000
vn 0.000000 0.000000 -1.000000
vn 0.000000 0.000000 -1.000000
vn -0.866025 0.000000 -0.500000
vn -0.866025 0.000000 -0.500000
vn -0.866025 0.000000 -0.500000
vn -0.866025 0.000000 -0.500000
vn -0.866026 0.000000 0.500000
vn -0.866026 0.000000 0.500000
vn -0.866026 0.000000 0.500000
vn -0.866026 0.000000 0.500000
vn -0.000000 0.000000 1.000000
vn -0.000000 0.000000 1.000000
vn -0.000000 0.000000 1.000000
vn -0.000000 0.000000 1.000000
vn 0.866025 0.000000 0.500000
vn 0.866025 0.000000 0.500000
vn 0.866025 0.000000 0.500000
vn 0.866025 0.000000 0.500000
vn 0.866026 0.000000 -0.500000
vn 0.866026 0.000000 -0.500000
vn 0.866026 0.000000 -0.500000
vn 0.866026 0.000000 -0.500000
vn 0.000000 -1.000000 0.000021
vn 0.000000 -1.000000 0.000021
vn 0.000000 -1.000000 0.000000
vn 0.000000 -1.000000 0.000000
vn 0.000000 -1.000000 -0.000021
vn 0.000000 -1.000000 -0.000021
vn 0.000000 -1.000000 0.000000
s off
g pasted__pasted__pasted__pasted__pCylinder1 pasted__pasted__pasted__group2 pasted__pasted__group4 pasted__group16 group17
usemtl initialShadingGroup
f 26/58/72 27/59/73 33/66/74 32/65/75
f 27/59/76 28/60/77 34/67/78 33/66/79
f 28/60/80 29/61/81 35/68/82 34/67/83
f 29/61/84 30/62/85 36/69/86 35/68/87
f 30/62/88 31/63/89 37/70/90 36/69/91
f 31/63/92 26/64/93 32/71/94 37/70/95
s 1
f 27/53/96 26/52/97 38/72/98
f 28/54/99 27/53/96 38/72/98
f 29/55/100 28/54/99 38/72/98
f 30/56/101 29/55/100 38/72/98
f 31/57/102 30/56/101 38/72/98
f 26/52/97 31/57/102 38/72/98
g default
v -6.727599 12.327543 -17.858882
v -6.780946 12.327543 -17.858882
v -6.807620 12.327543 -17.812682
v -6.780946 12.327543 -17.766482
v -6.727599 12.327543 -17.766482
v -6.700925 12.327543 -17.812682
v -6.727599 45.241150 -17.858882
v -6.780946 45.241150 -17.858882
v -6.807620 45.241150 -17.812682
v -6.780946 45.241150 -17.766482
v -6.727599 45.241150 -17.766482
v -6.700925 45.241150 -17.812682
v -6.754273 12.327543 -17.812682
vt 0.578125 0.020934
vt 0.421875 0.020934
vt 0.343750 0.156250
vt 0.421875 0.291566
vt 0.578125 0.291566
vt 0.656250 0.156250
vt 0.375000 0.312500
vt 0.416667 0.312500
vt 0.458333 0.312500
vt 0.500000 0.312500
vt 0.541667 0.312500
vt 0.583333 0.312500
vt 0.625000 0.312500
vt 0.375000 0.688440
vt 0.416667 0.688440
vt 0.458333 0.688440
vt 0.500000 0.688440
vt 0.541667 0.688440
vt 0.583333 0.688440
vt 0.625000 0.688440
vt 0.500000 0.150000
vn 0.000000 0.000000 -1.000000
vn 0.000000 0.000000 -1.000000
vn 0.000000 0.000000 -1.000000
vn 0.000000 0.000000 -1.000000
vn -0.866025 0.000000 -0.500000
vn -0.866025 0.000000 -0.500000
vn -0.866025 0.000000 -0.500000
vn -0.866025 0.000000 -0.500000
vn -0.866026 0.000000 0.500000
vn -0.866026 0.000000 0.500000
vn -0.866026 0.000000 0.500000
vn -0.866026 0.000000 0.500000
vn -0.000000 0.000000 1.000000
vn -0.000000 0.000000 1.000000
vn -0.000000 0.000000 1.000000
vn -0.000000 0.000000 1.000000
vn 0.866025 0.000000 0.500000
vn 0.866025 0.000000 0.500000
vn 0.866025 0.000000 0.500000
vn 0.866025 0.000000 0.500000
vn 0.866026 0.000000 -0.500000
vn 0.866026 0.000000 -0.500000
vn 0.866026 0.000000 -0.500000
vn 0.866026 0.000000 -0.500000
vn 0.000000 -1.000000 0.000021
vn 0.000000 -1.000000 0.000021
vn 0.000000 -1.000000 0.000000
vn 0.000000 -1.000000 0.000000
vn 0.000000 -1.000000 -0.000021
vn 0.000000 -1.000000 -0.000021
vn 0.000000 -1.000000 0.000000
s off
g pasted__pasted__pasted__pasted__pCylinder1 pasted__pasted__pasted__group2 pasted__pasted__group4 pasted__group16 group19
usemtl initialShadingGroup
f 39/79/103 40/80/104 46/87/105 45/86/106
f 40/80/107 41/81/108 47/88/109 46/87/110
f 41/81/111 42/82/112 48/89/113 47/88/114
f 42/82/115 43/83/116 49/90/117 48/89/118
f 43/83/119 44/84/120 50/91/121 49/90/122
f 44/84/123 39/85/124 45/92/125 50/91/126
s 1
f 40/74/127 39/73/128 51/93/129
f 41/75/130 40/74/127 51/93/129
f 42/76/131 41/75/130 51/93/129
f 43/77/132 42/76/131 51/93/129
f 44/78/133 43/77/132 51/93/129
f 39/73/128 44/78/133 51/93/129
g default
v -6.719811 12.327543 -21.394704
v -6.773158 12.327543 -21.394704
v -6.799832 12.327543 -21.348503
v -6.773158 12.327543 -21.302303
v -6.719811 12.327543 -21.302303
v -6.693137 12.327543 -21.348503
v -6.719811 45.241150 -21.394704
v -6.773158 45.241150 -21.394704
v -6.799832 45.241150 -21.348503
v -6.773158 45.241150 -21.302303
v -6.719811 45.241150 -21.302303
v -6.693137 45.241150 -21.348503
v -6.746484 12.327543 -21.348503
vt 0.578125 0.020934
vt 0.421875 0.020934
vt 0.343750 0.156250
vt 0.421875 0.291566
vt 0.578125 0.291566
vt 0.656250 0.156250
vt 0.375000 0.312500
vt 0.416667 0.312500
vt 0.458333 0.312500
vt 0.500000 0.312500
vt 0.541667 0.312500
vt 0.583333 0.312500
vt 0.625000 0.312500
vt 0.375000 0.688440
vt 0.416667 0.688440
vt 0.458333 0.688440
vt 0.500000 0.688440
vt 0.541667 0.688440
vt 0.583333 0.688440
vt 0.625000 0.688440
vt 0.500000 0.150000
vn 0.000000 0.000000 -1.000000
vn 0.000000 0.000000 -1.000000
vn 0.000000 0.000000 -1.000000
vn 0.000000 0.000000 -1.000000
vn -0.866025 0.000000 -0.500000
vn -0.866025 0.000000 -0.500000
vn -0.866025 0.000000 -0.500000
vn -0.866025 0.000000 -0.500000
vn -0.866026 0.000000 0.500000
vn -0.866026 0.000000 0.500000
vn -0.866026 0.000000 0.500000
vn -0.866026 0.000000 0.500000
vn -0.000000 0.000000 1.000000
vn -0.000000 0.000000 1.000000
vn -0.000000 0.000000 1.000000
vn -0.000000 0.000000 1.000000
vn 0.866025 0.000000 0.500000
vn 0.866025 0.000000 0.500000
vn 0.866025 0.000000 0.500000
vn 0.866025 0.000000 0.500000
vn 0.866026 0.000000 -0.500000
vn 0.866026 0.000000 -0.500000
vn 0.866026 0.000000 -0.500000
vn 0.866026 0.000000 -0.500000
vn 0.000000 -1.000000 0.000021
vn 0.000000 -1.000000 0.000021
vn 0.000000 -1.000000 0.000000
vn 0.000000 -1.000000 0.000000
vn 0.000000 -1.000000 -0.000021
vn 0.000000 -1.000000 -0.000021
vn 0.000000 -1.000000 0.000000
s off
g pasted__pasted__pasted__pasted__pasted__pCylinder1 pasted__pasted__pasted__pasted__group2 pasted__pasted__pasted__group4 pasted__pasted__group16 pasted__group17 group18
usemtl initialShadingGroup
f 52/100/134 53/101/135 59/108/136 58/107/137
f 53/101/138 54/102/139 60/109/140 59/108/141
f 54/102/142 55/103/143 61/110/144 60/109/145
f 55/103/146 56/104/147 62/111/148 61/110/149
f 56/104/150 57/105/151 63/112/152 62/111/153
f 57/105/154 52/106/155 58/113/156 63/112/157
s 1
f 53/95/158 52/94/159 64/114/160
f 54/96/161 53/95/158 64/114/160
f 55/97/162 54/96/161 64/114/160
f 56/98/163 55/97/162 64/114/160
f 57/99/164 56/98/163 64/114/160
f 52/94/159 57/99/164 64/114/160
