# This file uses centimeters as units for non-parametric coordinates.

mtllib platformForHumanSacrfices.mtl
g default
v -6.962521 12.296555 -17.638477
v 0.334476 12.296555 -17.638477
v -6.962521 12.619832 -17.638477
v 0.334476 12.619832 -17.638477
v -6.962521 12.619832 -21.664379
v 0.334476 12.619832 -21.664379
v -6.962521 12.296555 -21.664379
v 0.334476 12.296555 -21.664379
v -6.892592 12.296555 -17.638477
v -6.892592 12.296555 -21.664379
v -6.892592 12.619832 -21.664379
v -6.892592 12.619832 -17.638477
v -6.962521 12.619832 -17.731117
v -6.892592 12.619832 -17.731117
v 0.334476 12.619832 -17.731117
v 0.334476 12.296555 -17.731117
v -6.892592 12.296555 -17.731117
v -6.962521 12.296555 -17.731117
v -6.962521 12.296555 -21.568457
v -6.892592 12.296555 -21.568459
v 0.334476 12.296555 -21.568457
v 0.334476 12.619832 -21.568459
v -6.892592 12.619832 -21.568457
v -6.962521 12.619832 -21.568459
v 0.262744 12.296555 -17.638477
v 0.262744 12.296555 -17.731117
v 0.262744 12.296555 -21.568457
v 0.262744 12.296555 -21.664379
v 0.262744 12.619832 -21.664379
v 0.262744 12.619832 -21.568459
v 0.262744 12.619832 -17.731117
v 0.262744 12.619832 -17.638477
v 0.334476 14.920906 -21.568459
v 0.262744 14.920906 -21.568459
v 0.262744 14.920906 -17.731117
v 0.334476 14.920906 -17.731117
v -6.962521 14.920906 -17.731117
v -6.892592 14.920906 -17.731117
v -6.892592 14.920906 -21.568457
v -6.962521 14.920906 -21.568459
v -6.962521 14.920906 -17.638477
v -6.892592 14.920906 -17.638477
v 0.262744 14.920906 -17.638477
v 0.334476 14.920906 -17.638477
v 0.262744 14.920906 -21.664379
v 0.334476 14.920906 -21.664379
v -6.892592 14.920906 -21.664379
v -6.962521 14.920906 -21.664379
v 0.138967 12.327541 -17.858881
v 0.085619 12.327541 -17.858881
v 0.058945 12.327541 -17.812681
v 0.085619 12.327541 -17.766481
v 0.138967 12.327541 -17.766481
v 0.165640 12.327541 -17.812681
v 0.138967 45.241150 -17.858881
v 0.085619 45.241150 -17.858881
v 0.058945 45.241150 -17.812681
v 0.085619 45.241150 -17.766481
v 0.138967 45.241150 -17.766481
v 0.165640 45.241150 -17.812681
v 0.112293 12.327541 -17.812681
v 0.138967 12.327541 -21.394703
v 0.085619 12.327541 -21.394703
v 0.058945 12.327541 -21.348503
v 0.085619 12.327541 -21.302303
v 0.138967 12.327541 -21.302303
v 0.165640 12.327541 -21.348503
v 0.138967 45.241150 -21.394703
v 0.085619 45.241150 -21.394703
v 0.058945 45.241150 -21.348503
v 0.085619 45.241150 -21.302303
v 0.138967 45.241150 -21.302303
v 0.165640 45.241150 -21.348503
v 0.112293 12.327541 -21.348503
v -6.719810 12.327541 -21.394703
v -6.773158 12.327541 -21.394703
v -6.799832 12.327541 -21.348503
v -6.773158 12.327541 -21.302303
v -6.719810 12.327541 -21.302303
v -6.693137 12.327541 -21.348503
v -6.719810 45.241150 -21.394703
v -6.773158 45.241150 -21.394703
v -6.799832 45.241150 -21.348503
v -6.773158 45.241150 -21.302303
v -6.719810 45.241150 -21.302303
v -6.693137 45.241150 -21.348503
v -6.746484 12.327541 -21.348503
v -6.727599 12.327541 -17.858881
v -6.780947 12.327541 -17.858881
v -6.807621 12.327541 -17.812681
v -6.780947 12.327541 -17.766481
v -6.727599 12.327541 -17.766481
v -6.700925 12.327541 -17.812681
v -6.727599 45.241150 -17.858881
v -6.780947 45.241150 -17.858881
v -6.807621 45.241150 -17.812681
v -6.780947 45.241150 -17.766481
v -6.727599 45.241150 -17.766481
v -6.700925 45.241150 -17.812681
v -6.754273 12.327541 -17.812681
vt 0.148425 0.004163
vt 0.138642 0.004163
vt 0.138642 0.001992
vt 0.148425 0.001992
vt 0.148425 0.220694
vt 0.138642 0.220694
vt 0.218059 0.001992
vt 0.218059 0.004163
vt 0.138642 0.222810
vt 0.148425 0.222810
vt 0.218059 0.220694
vt 0.218059 0.222810
vt 0.472485 0.001992
vt 0.472485 0.004163
vt 0.356361 0.004163
vt 0.356361 0.001992
vt 0.475388 0.004163
vt 0.475388 0.001992
vt 0.353558 0.004163
vt 0.353558 0.001992
vt 0.475388 0.220694
vt 0.472485 0.220694
vt 0.356361 0.220694
vt 0.353558 0.220694
vt 0.472485 0.222810
vt 0.475388 0.222810
vt 0.353558 0.222810
vt 0.356361 0.222810
vt 0.562288 0.004163
vt 0.552505 0.004163
vt 0.552505 0.001992
vt 0.562288 0.001992
vt 0.562288 0.220694
vt 0.552505 0.220694
vt 0.482871 0.004163
vt 0.482871 0.001992
vt 0.552505 0.222810
vt 0.562288 0.222810
vt 0.482871 0.220694
vt 0.482871 0.222810
vt 0.343271 0.001992
vt 0.343271 0.004163
vt 0.227147 0.004163
vt 0.227147 0.001992
vt 0.346074 0.004163
vt 0.346074 0.001992
vt 0.343271 0.220694
vt 0.227147 0.220694
vt 0.224244 0.004163
vt 0.224244 0.001992
vt 0.346074 0.220694
vt 0.227147 0.222810
vt 0.343271 0.222810
vt 0.224244 0.220694
vt 0.346074 0.222810
vt 0.224244 0.222810
vt 0.853275 0.121019
vt 0.843492 0.121019
vt 0.843492 0.004895
vt 0.853275 0.004895
vt 0.843492 0.123822
vt 0.853275 0.123822
vt 0.843492 0.001992
vt 0.853275 0.001992
vt 0.922909 0.004895
vt 0.922909 0.121019
vt 0.922909 0.123822
vt 0.922909 0.001992
vt 0.863015 0.246479
vt 0.853232 0.246479
vt 0.853232 0.130355
vt 0.863015 0.130355
vt 0.853232 0.249382
vt 0.863015 0.249382
vt 0.853232 0.127552
vt 0.863015 0.127552
vt 0.932649 0.130355
vt 0.932649 0.246479
vt 0.932649 0.249382
vt 0.932649 0.127552
vt 0.568473 0.001992
vt 0.684597 0.001992
vt 0.684597 0.218523
vt 0.568473 0.218523
vt 0.777865 0.338377
vt 0.777865 0.222254
vt 0.847499 0.222254
vt 0.847499 0.338377
vt 0.702497 0.338377
vt 0.702497 0.222254
vt 0.772131 0.222254
vt 0.772131 0.338377
vt 0.766997 0.218523
vt 0.766997 0.001992
vt 0.836631 0.001992
vt 0.836631 0.218523
vt 0.760135 0.001992
vt 0.760135 0.218523
vt 0.690502 0.218523
vt 0.690502 0.001992
vt 0.003476 0.998008
vt 0.001862 0.998008
vt 0.001862 0.001992
vt 0.003476 0.001992
vt 0.009329 0.001992
vt 0.010727 0.001992
vt 0.010727 0.998008
vt 0.009329 0.998008
vt 0.012125 0.001992
vt 0.012125 0.998008
vt 0.018436 0.001992
vt 0.020050 0.001992
vt 0.020050 0.998008
vt 0.018436 0.998008
vt 0.020857 0.001992
vt 0.020857 0.998008
vt 0.027542 0.001992
vt 0.028940 0.001992
vt 0.028940 0.998008
vt 0.027542 0.998008
vt 0.693968 0.224675
vt 0.693968 0.223061
vt 0.695366 0.223868
vt 0.695366 0.222253
vt 0.695366 0.225482
vt 0.696764 0.223061
vt 0.696764 0.224675
vt 0.036442 0.998008
vt 0.034827 0.998008
vt 0.034827 0.001992
vt 0.036442 0.001992
vt 0.043934 0.001992
vt 0.045332 0.001992
vt 0.045332 0.998008
vt 0.043934 0.998008
vt 0.046730 0.001992
vt 0.046730 0.998008
vt 0.053041 0.001992
vt 0.054655 0.001992
vt 0.054655 0.998008
vt 0.053041 0.998008
vt 0.055462 0.001992
vt 0.055462 0.998008
vt 0.062147 0.001992
vt 0.063545 0.001992
vt 0.063545 0.998008
vt 0.062147 0.998008
vt 0.685438 0.224675
vt 0.685438 0.223061
vt 0.686836 0.223868
vt 0.686836 0.222253
vt 0.686836 0.225482
vt 0.688234 0.223061
vt 0.688234 0.224675
vt 0.071047 0.998008
vt 0.069432 0.998008
vt 0.069432 0.001992
vt 0.071047 0.001992
vt 0.078539 0.001992
vt 0.079937 0.001992
vt 0.079937 0.998008
vt 0.078539 0.998008
vt 0.081335 0.001992
vt 0.081335 0.998008
vt 0.087646 0.001992
vt 0.089260 0.001992
vt 0.089260 0.998008
vt 0.087646 0.998008
vt 0.090067 0.001992
vt 0.090067 0.998008
vt 0.096752 0.001992
vt 0.098150 0.001992
vt 0.098150 0.998008
vt 0.096752 0.998008
vt 0.676908 0.224675
vt 0.676908 0.223061
vt 0.678306 0.223868
vt 0.678306 0.222253
vt 0.678306 0.225482
vt 0.679705 0.223061
vt 0.679705 0.224675
vt 0.105652 0.998008
vt 0.104037 0.998008
vt 0.104037 0.001992
vt 0.105652 0.001992
vt 0.113144 0.001992
vt 0.114542 0.001992
vt 0.114542 0.998008
vt 0.113144 0.998008
vt 0.115940 0.001992
vt 0.115940 0.998008
vt 0.122251 0.001992
vt 0.123865 0.001992
vt 0.123865 0.998008
vt 0.122251 0.998008
vt 0.124672 0.001992
vt 0.124672 0.998008
vt 0.131357 0.001992
vt 0.132755 0.001992
vt 0.132755 0.998008
vt 0.131357 0.998008
vt 0.668379 0.224675
vt 0.668379 0.223061
vt 0.669777 0.223868
vt 0.669777 0.222253
vt 0.669777 0.225482
vt 0.671175 0.223061
vt 0.671175 0.224675
vn 0.000000 0.000000 1.000000
vn 0.000000 0.000000 1.000000
vn 0.000000 0.000000 1.000000
vn 0.000000 0.000000 1.000000
vn 0.000000 1.000000 0.000000
vn 0.000000 1.000000 0.000000
vn 0.000000 1.000000 0.000000
vn 0.000000 1.000000 0.000000
vn 0.000000 0.000000 -1.000000
vn 0.000000 0.000000 -1.000000
vn 0.000000 0.000000 -1.000000
vn 0.000000 0.000000 -1.000000
vn 0.000000 -1.000000 0.000000
vn 0.000000 -1.000000 0.000000
vn 0.000000 -1.000000 0.000000
vn 0.000000 -1.000000 0.000000
vn 1.000000 -0.000000 0.000000
vn 1.000000 -0.000000 0.000000
vn 1.000000 -0.000000 0.000000
vn 1.000000 -0.000000 0.000000
vn -1.000000 0.000000 0.000000
vn -1.000000 0.000000 0.000000
vn -1.000000 0.000000 0.000000
vn -1.000000 0.000000 0.000000
vn 0.000000 -1.000000 0.000000
vn 0.000000 -1.000000 0.000000
vn 0.000000 -1.000000 0.000000
vn 0.000000 -1.000000 0.000000
vn 0.000000 0.000000 -1.000000
vn 0.000000 0.000000 -1.000000
vn 0.000000 0.000000 -1.000000
vn 0.000000 0.000000 -1.000000
vn 0.000000 1.000000 0.000000
vn 0.000000 1.000000 0.000000
vn 0.000000 1.000000 0.000000
vn 0.000000 1.000000 0.000000
vn 0.000000 0.000000 1.000000
vn 0.000000 0.000000 1.000000
vn 0.000000 0.000000 1.000000
vn 0.000000 0.000000 1.000000
vn 0.000000 1.000000 0.000000
vn 0.000000 1.000000 0.000000
vn 0.000000 1.000000 0.000000
vn 0.000000 1.000000 0.000000
vn 1.000000 0.000000 0.000000
vn 1.000000 0.000000 0.000000
vn 0.000000 -1.000000 0.000000
vn 0.000000 -1.000000 0.000000
vn 0.000000 -1.000000 0.000000
vn 0.000000 -1.000000 0.000000
vn -1.000000 0.000000 0.000000
vn -1.000000 0.000000 0.000000
vn 0.000000 -1.000000 0.000000
vn 0.000000 -1.000000 0.000000
vn 0.000000 -1.000000 0.000000
vn 0.000000 -1.000000 0.000000
vn 1.000000 0.000000 0.000000
vn 1.000000 0.000000 0.000000
vn 0.000000 1.000000 0.000000
vn 0.000000 1.000000 0.000000
vn 0.000000 1.000000 0.000000
vn 0.000000 1.000000 0.000000
vn -1.000000 0.000000 0.000000
vn -1.000000 0.000000 0.000000
vn 0.000000 1.000000 0.000000
vn 0.000000 1.000000 0.000000
vn 0.000000 1.000000 0.000000
vn 0.000000 1.000000 0.000000
vn -1.000000 0.000000 0.000000
vn -1.000000 0.000000 0.000000
vn -1.000000 0.000000 0.000000
vn -1.000000 0.000000 0.000000
vn 1.000000 0.000000 0.000000
vn 1.000000 0.000000 0.000000
vn 1.000000 0.000000 0.000000
vn 1.000000 0.000000 0.000000
vn 1.000000 0.000000 0.000000
vn 1.000000 0.000000 0.000000
vn 1.000000 0.000000 0.000000
vn 1.000000 0.000000 0.000000
vn -1.000000 0.000000 0.000000
vn -1.000000 0.000000 0.000000
vn -1.000000 0.000000 0.000000
vn -1.000000 0.000000 0.000000
vn 0.000000 0.000000 1.000000
vn 0.000000 0.000000 1.000000
vn 0.000000 0.000000 1.000000
vn 0.000000 0.000000 1.000000
vn -1.000000 0.000000 0.000000
vn -1.000000 0.000000 0.000000
vn -1.000000 0.000000 0.000000
vn -1.000000 0.000000 0.000000
vn 0.000000 0.000000 1.000000
vn 0.000000 0.000000 1.000000
vn 0.000000 0.000000 1.000000
vn 0.000000 0.000000 1.000000
vn 1.000000 0.000000 0.000000
vn 1.000000 0.000000 0.000000
vn 1.000000 0.000000 0.000000
vn 1.000000 0.000000 0.000000
vn 1.000000 0.000000 0.000000
vn 1.000000 0.000000 0.000000
vn 1.000000 0.000000 0.000000
vn 1.000000 0.000000 0.000000
vn 0.000000 0.000000 -1.000000
vn 0.000000 0.000000 -1.000000
vn 0.000000 0.000000 -1.000000
vn 0.000000 0.000000 -1.000000
vn 0.000000 0.000000 -1.000000
vn 0.000000 0.000000 -1.000000
vn 0.000000 0.000000 -1.000000
vn 0.000000 0.000000 -1.000000
vn -1.000000 0.000000 0.000000
vn -1.000000 0.000000 0.000000
vn -1.000000 0.000000 0.000000
vn -1.000000 0.000000 0.000000
vn 0.000000 0.000000 1.000000
vn 0.000000 0.000000 1.000000
vn 0.000000 0.000000 1.000000
vn 0.000000 0.000000 1.000000
vn 0.000000 0.000000 -1.000000
vn 0.000000 0.000000 -1.000000
vn 0.000000 0.000000 -1.000000
vn 0.000000 0.000000 -1.000000
vn 0.000000 0.000000 -1.000000
vn 0.000000 0.000000 -1.000000
vn 0.000000 0.000000 -1.000000
vn 0.000000 0.000000 -1.000000
vn 0.000000 0.000000 1.000000
vn 0.000000 0.000000 1.000000
vn 0.000000 0.000000 1.000000
vn 0.000000 0.000000 1.000000
vn 0.000000 0.000000 -1.000000
vn 0.000000 0.000000 -1.000000
vn 0.000000 0.000000 -1.000000
vn 0.000000 0.000000 -1.000000
vn -0.866027 0.000000 -0.499997
vn -0.866027 0.000000 -0.499997
vn -0.866027 0.000000 -0.499997
vn -0.866027 0.000000 -0.499997
vn -0.866019 0.000000 0.500011
vn -0.866019 0.000000 0.500011
vn -0.866019 0.000000 0.500011
vn -0.866019 0.000000 0.500011
vn 0.000000 0.000000 1.000000
vn 0.000000 0.000000 1.000000
vn 0.000000 0.000000 1.000000
vn 0.000000 0.000000 1.000000
vn 0.866019 0.000000 0.500012
vn 0.866019 0.000000 0.500012
vn 0.866019 0.000000 0.500012
vn 0.866019 0.000000 0.500012
vn 0.866028 0.000000 -0.499996
vn 0.866028 0.000000 -0.499996
vn 0.866028 0.000000 -0.499996
vn 0.866028 0.000000 -0.499996
vn 0.000000 -1.000000 -0.000012
vn 0.000000 -1.000000 0.000000
vn 0.000000 -1.000000 -0.000004
vn 0.000000 -1.000000 0.000000
vn 0.000000 -1.000000 0.000012
vn 0.000000 -1.000000 -0.000012
vn 0.000000 -1.000000 -0.000012
vn 0.000000 0.000000 -1.000000
vn 0.000000 0.000000 -1.000000
vn 0.000000 0.000000 -1.000000
vn 0.000000 0.000000 -1.000000
vn -0.866027 0.000000 -0.499997
vn -0.866027 0.000000 -0.499997
vn -0.866027 0.000000 -0.499997
vn -0.866027 0.000000 -0.499997
vn -0.866019 0.000000 0.500011
vn -0.866019 0.000000 0.500011
vn -0.866019 0.000000 0.500011
vn -0.866019 0.000000 0.500011
vn 0.000000 0.000000 1.000000
vn 0.000000 0.000000 1.000000
vn 0.000000 0.000000 1.000000
vn 0.000000 0.000000 1.000000
vn 0.866019 0.000000 0.500012
vn 0.866019 0.000000 0.500012
vn 0.866019 0.000000 0.500012
vn 0.866019 0.000000 0.500012
vn 0.866028 0.000000 -0.499996
vn 0.866028 0.000000 -0.499996
vn 0.866028 0.000000 -0.499996
vn 0.866028 0.000000 -0.499996
vn 0.000000 -1.000000 -0.000012
vn 0.000000 -1.000000 0.000000
vn 0.000000 -1.000000 -0.000004
vn 0.000000 -1.000000 0.000000
vn 0.000000 -1.000000 0.000012
vn 0.000000 -1.000000 -0.000012
vn 0.000000 -1.000000 -0.000012
vn 0.000000 0.000000 -1.000000
vn 0.000000 0.000000 -1.000000
vn 0.000000 0.000000 -1.000000
vn 0.000000 0.000000 -1.000000
vn -0.866027 0.000000 -0.499998
vn -0.866027 0.000000 -0.499998
vn -0.866027 0.000000 -0.499998
vn -0.866027 0.000000 -0.499998
vn -0.866018 0.000000 0.500013
vn -0.866018 0.000000 0.500013
vn -0.866018 0.000000 0.500013
vn -0.866018 0.000000 0.500013
vn 0.000000 0.000000 1.000000
vn 0.000000 0.000000 1.000000
vn 0.000000 0.000000 1.000000
vn 0.000000 0.000000 1.000000
vn 0.866018 0.000000 0.500013
vn 0.866018 0.000000 0.500013
vn 0.866018 0.000000 0.500013
vn 0.866018 0.000000 0.500013
vn 0.866027 0.000000 -0.499998
vn 0.866027 0.000000 -0.499998
vn 0.866027 0.000000 -0.499998
vn 0.866027 0.000000 -0.499998
vn 0.000000 -1.000000 0.000000
vn 0.000000 -1.000000 0.000000
vn 0.000000 -1.000000 0.000000
vn 0.000000 -1.000000 0.000000
vn 0.000000 -1.000000 0.000000
vn 0.000000 -1.000000 0.000000
vn 0.000000 -1.000000 0.000000
vn 0.000000 0.000000 -1.000000
vn 0.000000 0.000000 -1.000000
vn 0.000000 0.000000 -1.000000
vn 0.000000 0.000000 -1.000000
vn -0.866027 0.000000 -0.499998
vn -0.866027 0.000000 -0.499998
vn -0.866027 0.000000 -0.499998
vn -0.866027 0.000000 -0.499998
vn -0.866018 0.000000 0.500013
vn -0.866018 0.000000 0.500013
vn -0.866018 0.000000 0.500013
vn -0.866018 0.000000 0.500013
vn 0.000000 0.000000 1.000000
vn 0.000000 0.000000 1.000000
vn 0.000000 0.000000 1.000000
vn 0.000000 0.000000 1.000000
vn 0.866018 0.000000 0.500013
vn 0.866018 0.000000 0.500013
vn 0.866018 0.000000 0.500013
vn 0.866018 0.000000 0.500013
vn 0.866027 0.000000 -0.499998
vn 0.866027 0.000000 -0.499998
vn 0.866027 0.000000 -0.499998
vn 0.866027 0.000000 -0.499998
vn 0.000000 -1.000000 0.000000
vn 0.000000 -1.000000 0.000000
vn 0.000000 -1.000000 0.000000
vn 0.000000 -1.000000 0.000000
vn 0.000000 -1.000000 0.000000
vn 0.000000 -1.000000 0.000000
vn 0.000000 -1.000000 0.000000
s 1
g pCube4
usemtl lambert2SG
f 32/1/1 25/2/2 2/3/3 4/4/4
s 2
f 33/13/5 34/14/6 35/15/7 36/16/8
s 3
f 28/29/9 29/30/10 6/31/11 8/32/12
s 4
f 16/41/13 26/42/14 27/43/15 21/44/16
s 5
f 15/57/17 16/58/18 21/59/19 22/60/20
s 6
f 24/69/21 19/70/22 18/71/23 13/72/24
s 4
f 19/52/25 20/48/26 17/47/27 18/53/28
s 3
f 5/37/29 11/34/30 10/33/31 7/38/32
s 2
f 37/28/33 38/23/34 39/22/35 40/25/36
s 1
f 1/9/37 9/6/38 12/5/39 3/10/40
s 2
f 41/27/41 42/24/42 38/23/34 37/28/33
f 36/16/8 35/15/7 43/19/43 44/20/44
s 5
f 2/61/45 16/58/18 15/57/17 4/62/46
s 4
f 25/45/47 26/42/14 16/41/13 2/46/48
f 18/53/28 17/47/27 9/51/49 1/55/50
s 6
f 13/72/24 18/71/23 1/75/51 3/76/52
s 4
f 7/56/53 10/54/54 20/48/26 19/52/25
f 21/44/16 27/43/15 28/49/55 8/50/56
s 5
f 22/60/20 21/59/19 8/63/57 6/64/58
s 2
f 45/17/59 34/14/6 33/13/5 46/18/60
f 40/25/36 39/22/35 47/21/61 48/26/62
s 6
f 7/73/63 19/70/22 24/69/21 5/74/64
s 4
f 9/51/49 17/47/27 26/42/14 25/45/47
f 27/43/15 26/42/14 17/47/27 20/48/26
f 28/49/55 27/43/15 20/48/26 10/54/54
s 3
f 10/33/31 11/34/30 29/30/10 28/29/9
s 2
f 47/21/61 39/22/35 34/14/6 45/17/59
s off
f 31/81/65 30/82/66 23/83/67 14/84/68
s 2
f 43/19/43 35/15/7 38/23/34 42/24/42
s 1
f 12/5/39 9/6/38 25/2/2 32/1/1
s off
f 30/85/69 31/86/70 35/87/71 34/88/72
f 15/57/73 22/60/74 33/65/75 36/66/76
f 14/89/77 23/90/78 39/91/79 38/92/80
f 24/69/81 13/72/82 37/77/83 40/78/84
f 3/10/85 12/5/86 42/11/87 41/12/88
f 13/72/89 3/76/90 41/80/91 37/77/92
f 32/1/93 4/4/94 44/7/95 43/8/96
f 4/62/97 15/57/98 36/66/99 44/67/100
f 22/60/101 6/64/102 46/68/103 33/65/104
f 6/31/105 29/30/106 45/35/107 46/36/108
f 11/34/109 5/37/110 48/40/111 47/39/112
f 5/74/113 24/69/114 40/78/115 48/79/116
f 23/93/117 30/94/118 34/95/119 39/96/120
f 29/30/121 11/34/122 47/39/123 45/35/124
f 31/97/125 14/98/126 38/99/127 35/100/128
f 12/5/129 32/1/130 43/8/131 42/11/132
f 49/101/133 50/102/134 56/103/135 55/104/136
f 50/105/137 51/106/138 57/107/139 56/108/140
f 51/106/141 52/109/142 58/110/143 57/107/144
f 52/111/145 53/112/146 59/113/147 58/114/148
f 53/112/149 54/115/150 60/116/151 59/113/152
f 54/117/153 49/118/154 55/119/155 60/120/156
s 9
f 50/121/157 49/122/158 61/123/159
f 51/125/160 50/121/157 61/123/159
f 52/127/161 51/125/160 61/123/159
f 53/126/162 52/127/161 61/123/159
f 54/124/163 53/126/162 61/123/159
f 49/122/158 54/124/163 61/123/159
s off
f 62/128/164 63/129/165 69/130/166 68/131/167
f 63/132/168 64/133/169 70/134/170 69/135/171
f 64/133/172 65/136/173 71/137/174 70/134/175
f 65/138/176 66/139/177 72/140/178 71/141/179
f 66/139/180 67/142/181 73/143/182 72/140/183
f 67/144/184 62/145/185 68/146/186 73/147/187
s 10
f 63/148/188 62/149/189 74/150/190
f 64/152/191 63/148/188 74/150/190
f 65/154/192 64/152/191 74/150/190
f 66/153/193 65/154/192 74/150/190
f 67/151/194 66/153/193 74/150/190
f 62/149/189 67/151/194 74/150/190
s off
f 75/155/195 76/156/196 82/157/197 81/158/198
f 76/159/199 77/160/200 83/161/201 82/162/202
f 77/160/203 78/163/204 84/164/205 83/161/206
f 78/165/207 79/166/208 85/167/209 84/168/210
f 79/166/211 80/169/212 86/170/213 85/167/214
f 80/171/215 75/172/216 81/173/217 86/174/218
s 11
f 76/175/219 75/176/220 87/177/221
f 77/179/222 76/175/219 87/177/221
f 78/181/223 77/179/222 87/177/221
f 79/180/224 78/181/223 87/177/221
f 80/178/225 79/180/224 87/177/221
f 75/176/220 80/178/225 87/177/221
s off
f 88/182/226 89/183/227 95/184/228 94/185/229
f 89/186/230 90/187/231 96/188/232 95/189/233
f 90/187/234 91/190/235 97/191/236 96/188/237
f 91/192/238 92/193/239 98/194/240 97/195/241
f 92/193/242 93/196/243 99/197/244 98/194/245
f 93/198/246 88/199/247 94/200/248 99/201/249
s 12
f 89/202/250 88/203/251 100/204/252
f 90/206/253 89/202/250 100/204/252
f 91/208/254 90/206/253 100/204/252
f 92/207/255 91/208/254 100/204/252
f 93/205/256 92/207/255 100/204/252
f 88/203/251 93/205/256 100/204/252
