# This file uses centimeters as units for non-parametric coordinates.

mtllib leverBase.mtl
g default
v 1.333563 -0.337779 10.763223
v 2.028825 -0.337779 10.763223
v 2.724088 -0.337779 10.763223
v 3.419350 -0.337779 10.763223
v 4.114612 -0.337779 10.763223
v 4.809874 -0.337779 10.763223
v 5.505137 -0.337779 10.763223
v 1.333563 0.255221 10.763223
v 2.028825 0.963983 10.763223
v 2.724088 1.633070 10.763223
v 3.419350 1.842569 10.763223
v 4.114612 1.633070 10.763223
v 4.809874 0.963983 10.763223
v 5.505137 0.255221 10.763223
v 1.333563 0.255221 9.745084
v 2.028825 0.963983 9.745084
v 2.724088 1.633070 9.745084
v 3.419350 1.842569 9.745084
v 4.114612 1.633070 9.745084
v 4.809874 0.963983 9.745084
v 5.505137 0.255221 9.745084
v 1.333563 -0.337779 9.745084
v 2.028825 -0.337779 9.745084
v 2.724088 -0.337779 9.745084
v 3.419350 -0.337779 9.745084
v 4.114612 -0.337779 9.745084
v 4.809874 -0.337779 9.745084
v 5.505137 -0.337779 9.745084
vt 0.375000 0.000000
vt 0.416667 0.000000
vt 0.458333 0.000000
vt 0.500000 0.000000
vt 0.541667 0.000000
vt 0.583333 0.000000
vt 0.625000 0.000000
vt 0.375000 0.250000
vt 0.416667 0.250000
vt 0.458333 0.250000
vt 0.500000 0.250000
vt 0.541667 0.250000
vt 0.583333 0.250000
vt 0.625000 0.250000
vt 0.375000 0.500000
vt 0.416667 0.500000
vt 0.458333 0.500000
vt 0.500000 0.500000
vt 0.541667 0.500000
vt 0.583333 0.500000
vt 0.625000 0.500000
vt 0.375000 0.750000
vt 0.416667 0.750000
vt 0.458333 0.750000
vt 0.500000 0.750000
vt 0.541667 0.750000
vt 0.583333 0.750000
vt 0.625000 0.750000
vt 0.375000 1.000000
vt 0.416667 1.000000
vt 0.458333 1.000000
vt 0.500000 1.000000
vt 0.541667 1.000000
vt 0.583333 1.000000
vt 0.625000 1.000000
vt 0.875000 0.000000
vt 0.875000 0.250000
vt 0.125000 0.000000
vt 0.125000 0.250000
vn -0.000000 0.000000 1.000000
vn -0.000000 0.000000 1.000000
vn -0.000000 0.000000 1.000000
vn -0.000000 0.000000 1.000000
vn -0.000000 0.000000 1.000000
vn -0.000000 0.000000 1.000000
vn 0.000000 0.000000 1.000000
vn 0.000000 0.000000 1.000000
vn -0.000000 0.000000 1.000000
vn -0.000000 0.000000 1.000000
vn -0.000000 0.000000 1.000000
vn -0.000000 0.000000 1.000000
vn -0.000000 0.000000 1.000000
vn -0.000000 0.000000 1.000000
vn -0.703862 0.710337 0.000000
vn -0.703862 0.710337 0.000000
vn -0.703862 0.710337 0.000000
vn -0.703862 0.710337 0.000000
vn -0.605603 0.795767 0.000000
vn -0.605603 0.795767 0.000000
vn 0.000000 1.000000 0.000000
vn 0.000000 1.000000 0.000000
vn 0.605603 0.795767 0.000000
vn 0.605603 0.795767 0.000000
vn 0.703862 0.710337 0.000000
vn 0.703862 0.710337 0.000000
vn 0.703862 0.710337 0.000000
vn 0.703862 0.710337 0.000000
vn -0.000000 0.000000 -1.000000
vn -0.000000 0.000000 -1.000000
vn -0.000000 0.000000 -1.000000
vn -0.000000 0.000000 -1.000000
vn -0.000000 0.000000 -1.000000
vn -0.000000 0.000000 -1.000000
vn 0.000000 0.000000 -1.000000
vn 0.000000 0.000000 -1.000000
vn -0.000000 0.000000 -1.000000
vn -0.000000 0.000000 -1.000000
vn -0.000000 0.000000 -1.000000
vn -0.000000 0.000000 -1.000000
vn -0.000000 0.000000 -1.000000
vn -0.000000 0.000000 -1.000000
vn 0.000000 -1.000000 0.000000
vn 0.000000 -1.000000 0.000000
vn 0.000000 -1.000000 0.000000
vn 0.000000 -1.000000 0.000000
vn 0.000000 -1.000000 0.000000
vn 0.000000 -1.000000 0.000000
vn 0.000000 -1.000000 0.000000
vn 0.000000 -1.000000 0.000000
vn 0.000000 -1.000000 0.000000
vn 0.000000 -1.000000 0.000000
vn 0.000000 -1.000000 0.000000
vn 0.000000 -1.000000 0.000000
vn 0.000000 -1.000000 0.000000
vn 0.000000 -1.000000 0.000000
vn 1.000000 0.000000 0.000000
vn 1.000000 0.000000 0.000000
vn 1.000000 0.000000 0.000000
vn 1.000000 0.000000 0.000000
vn -1.000000 0.000000 0.000000
vn -1.000000 0.000000 0.000000
vn -1.000000 0.000000 0.000000
vn -1.000000 0.000000 0.000000
s 1
g pasted__pCube4 group20
usemtl initialShadingGroup
f 9/9/1 8/8/2 1/1/3 2/2/4 3/3/5 10/10/6
f 3/3/5 4/4/7 11/11/8 10/10/6
f 4/4/7 5/5/9 12/12/10 11/11/8
f 13/13/11 12/12/10 5/5/9 6/6/12 7/7/13 14/14/14
s 2
f 16/16/15 15/15/16 8/8/17 9/9/18 10/10/19 17/17/20
f 10/10/19 11/11/21 18/18/22 17/17/20
f 11/11/21 12/12/23 19/19/24 18/18/22
f 20/20/25 19/19/24 12/12/23 13/13/26 14/14/27 21/21/28
s 3
f 23/23/29 22/22/30 15/15/31 16/16/32 17/17/33 24/24/34
f 17/17/33 18/18/35 25/25/36 24/24/34
f 18/18/35 19/19/37 26/26/38 25/25/36
f 27/27/39 26/26/38 19/19/37 20/20/40 21/21/41 28/28/42
s 4
f 2/30/43 1/29/44 22/22/45 23/23/46 24/24/47 3/31/48
f 24/24/47 25/25/49 4/32/50 3/31/48
f 25/25/49 26/26/51 5/33/52 4/32/50
f 6/34/53 5/33/52 26/26/51 27/27/54 28/28/55 7/35/56
s off
f 7/7/57 28/36/58 21/37/59 14/14/60
f 22/38/61 1/1/62 8/8/63 15/39/64
g default
v 1.333563 -0.337779 9.355437
v 2.028825 -0.337779 9.355437
v 2.724088 -0.337779 9.355437
v 3.419350 -0.337779 9.355437
v 4.114612 -0.337779 9.355437
v 4.809874 -0.337779 9.355437
v 5.505137 -0.337779 9.355437
v 1.333563 0.255221 9.355437
v 2.028825 0.963983 9.355437
v 2.724088 1.633070 9.355437
v 3.419350 1.842569 9.355437
v 4.114612 1.633070 9.355437
v 4.809874 0.963983 9.355437
v 5.505137 0.255221 9.355437
v 1.333563 0.255221 8.337298
v 2.028825 0.963983 8.337298
v 2.724088 1.633070 8.337298
v 3.419350 1.842569 8.337298
v 4.114612 1.633070 8.337298
v 4.809874 0.963983 8.337298
v 5.505137 0.255221 8.337298
v 1.333563 -0.337779 8.337298
v 2.028825 -0.337779 8.337298
v 2.724088 -0.337779 8.337298
v 3.419350 -0.337779 8.337298
v 4.114612 -0.337779 8.337298
v 4.809874 -0.337779 8.337298
v 5.505137 -0.337779 8.337298
vt 0.375000 0.000000
vt 0.416667 0.000000
vt 0.458333 0.000000
vt 0.500000 0.000000
vt 0.541667 0.000000
vt 0.583333 0.000000
vt 0.625000 0.000000
vt 0.375000 0.250000
vt 0.416667 0.250000
vt 0.458333 0.250000
vt 0.500000 0.250000
vt 0.541667 0.250000
vt 0.583333 0.250000
vt 0.625000 0.250000
vt 0.375000 0.500000
vt 0.416667 0.500000
vt 0.458333 0.500000
vt 0.500000 0.500000
vt 0.541667 0.500000
vt 0.583333 0.500000
vt 0.625000 0.500000
vt 0.375000 0.750000
vt 0.416667 0.750000
vt 0.458333 0.750000
vt 0.500000 0.750000
vt 0.541667 0.750000
vt 0.583333 0.750000
vt 0.625000 0.750000
vt 0.375000 1.000000
vt 0.416667 1.000000
vt 0.458333 1.000000
vt 0.500000 1.000000
vt 0.541667 1.000000
vt 0.583333 1.000000
vt 0.625000 1.000000
vt 0.875000 0.000000
vt 0.875000 0.250000
vt 0.125000 0.000000
vt 0.125000 0.250000
vn -0.000000 0.000000 1.000000
vn -0.000000 0.000000 1.000000
vn -0.000000 0.000000 1.000000
vn -0.000000 0.000000 1.000000
vn -0.000000 0.000000 1.000000
vn -0.000000 0.000000 1.000000
vn 0.000000 0.000000 1.000000
vn 0.000000 0.000000 1.000000
vn -0.000000 0.000000 1.000000
vn -0.000000 0.000000 1.000000
vn -0.000000 0.000000 1.000000
vn -0.000000 0.000000 1.000000
vn -0.000000 0.000000 1.000000
vn -0.000000 0.000000 1.000000
vn -0.703862 0.710337 0.000000
vn -0.703862 0.710337 0.000000
vn -0.703862 0.710337 0.000000
vn -0.703862 0.710337 0.000000
vn -0.605603 0.795767 0.000000
vn -0.605603 0.795767 0.000000
vn 0.000000 1.000000 0.000000
vn 0.000000 1.000000 0.000000
vn 0.605603 0.795767 0.000000
vn 0.605603 0.795767 0.000000
vn 0.703862 0.710337 0.000000
vn 0.703862 0.710337 0.000000
vn 0.703862 0.710337 0.000000
vn 0.703862 0.710337 0.000000
vn -0.000000 0.000000 -1.000000
vn -0.000000 0.000000 -1.000000
vn -0.000000 0.000000 -1.000000
vn -0.000000 0.000000 -1.000000
vn -0.000000 0.000000 -1.000000
vn -0.000000 0.000000 -1.000000
vn 0.000000 0.000000 -1.000000
vn 0.000000 0.000000 -1.000000
vn -0.000000 0.000000 -1.000000
vn -0.000000 0.000000 -1.000000
vn -0.000000 0.000000 -1.000000
vn -0.000000 0.000000 -1.000000
vn -0.000000 0.000000 -1.000000
vn -0.000000 0.000000 -1.000000
vn 0.000000 -1.000000 0.000000
vn 0.000000 -1.000000 0.000000
vn 0.000000 -1.000000 0.000000
vn 0.000000 -1.000000 0.000000
vn 0.000000 -1.000000 0.000000
vn 0.000000 -1.000000 0.000000
vn 0.000000 -1.000000 0.000000
vn 0.000000 -1.000000 0.000000
vn 0.000000 -1.000000 0.000000
vn 0.000000 -1.000000 0.000000
vn 0.000000 -1.000000 0.000000
vn 0.000000 -1.000000 0.000000
vn 0.000000 -1.000000 0.000000
vn 0.000000 -1.000000 0.000000
vn 1.000000 0.000000 0.000000
vn 1.000000 0.000000 0.000000
vn 1.000000 0.000000 0.000000
vn 1.000000 0.000000 0.000000
vn -1.000000 0.000000 0.000000
vn -1.000000 0.000000 0.000000
vn -1.000000 0.000000 0.000000
vn -1.000000 0.000000 0.000000
s 1
g pCube4
usemtl initialShadingGroup
f 37/48/65 36/47/66 29/40/67 30/41/68 31/42/69 38/49/70
f 31/42/69 32/43/71 39/50/72 38/49/70
f 32/43/71 33/44/73 40/51/74 39/50/72
f 41/52/75 40/51/74 33/44/73 34/45/76 35/46/77 42/53/78
s 2
f 44/55/79 43/54/80 36/47/81 37/48/82 38/49/83 45/56/84
f 38/49/83 39/50/85 46/57/86 45/56/84
f 39/50/85 40/51/87 47/58/88 46/57/86
f 48/59/89 47/58/88 40/51/87 41/52/90 42/53/91 49/60/92
s 3
f 51/62/93 50/61/94 43/54/95 44/55/96 45/56/97 52/63/98
f 45/56/97 46/57/99 53/64/100 52/63/98
f 46/57/99 47/58/101 54/65/102 53/64/100
f 55/66/103 54/65/102 47/58/101 48/59/104 49/60/105 56/67/106
s 4
f 30/69/107 29/68/108 50/61/109 51/62/110 52/63/111 31/70/112
f 52/63/111 53/64/113 32/71/114 31/70/112
f 53/64/113 54/65/115 33/72/116 32/71/114
f 34/73/117 33/72/116 54/65/115 55/66/118 56/67/119 35/74/120
s off
f 35/46/121 56/75/122 49/76/123 42/53/124
f 50/77/125 29/40/126 36/47/127 43/78/128
