# This file uses centimeters as units for non-parametric coordinates.

mtllib lever with screen.mtl
g default
v 1.580818 0.000001 -1.580818
v 0.000000 0.000001 -2.235614
v -1.580818 0.000001 -1.580818
v -2.235614 0.000001 0.000000
v -1.580818 0.000001 1.580818
v 0.000000 0.000001 2.235614
v 1.580818 0.000001 1.580818
v 2.235615 0.000001 0.000000
v 1.669206 0.216507 -1.669206
v 0.000000 0.216507 -2.360614
v -1.669206 0.216507 -1.669206
v -2.360614 0.216507 0.000000
v -1.669206 0.216507 1.669207
v 0.000000 0.216507 2.360614
v 1.669207 0.216507 1.669207
v 2.360615 0.216507 0.000000
v 1.845983 0.216507 -1.845983
v 0.000000 0.216507 -2.610614
v -1.845983 0.216507 -1.845983
v -2.610614 0.216507 0.000000
v -1.845983 0.216507 1.845983
v 0.000000 0.216507 2.610614
v 1.845983 0.216507 1.845984
v 2.610615 0.216507 0.000000
v 1.934371 0.000001 -1.934371
v 0.000000 0.000001 -2.735614
v -1.934371 0.000001 -1.934371
v -2.735614 0.000001 0.000000
v -1.934371 0.000001 1.934371
v 0.000000 0.000001 2.735614
v 1.934372 0.000001 1.934371
v 2.735615 0.000001 0.000000
v 1.845983 -0.216506 -1.845983
v 0.000000 -0.216506 -2.610614
v -1.845983 -0.216506 -1.845983
v -2.610614 -0.216506 0.000000
v -1.845983 -0.216506 1.845983
v 0.000000 -0.216506 2.610614
v 1.845983 -0.216506 1.845984
v 2.610615 -0.216506 0.000000
v 1.669206 -0.216506 -1.669206
v 0.000000 -0.216506 -2.360614
v -1.669207 -0.216506 -1.669207
v -2.360614 -0.216506 0.000000
v -1.669206 -0.216506 1.669207
v 0.000000 -0.216506 2.360614
v 1.669206 -0.216506 1.669207
v 2.360615 -0.216506 0.000000
v 1.675167 -0.169014 -0.936911
v -0.001833 -0.169014 -1.324992
v 1.587248 0.846766 -0.887300
v -0.001833 0.846766 -1.254831
v -1.662190 -0.169014 -0.936911
v -1.574269 0.846766 -0.887299
v -2.002025 -0.169014 0.000000
v -1.877687 0.846766 0.000000
v -1.662188 -0.169014 0.936911
v -1.574269 0.846766 0.887300
v -0.001833 -0.169014 1.324992
v -0.001833 0.846766 1.254831
v 1.675168 -0.169014 0.936911
v 1.587248 0.846766 0.887300
v 2.015004 -0.169014 0.000000
v 1.890667 0.846766 0.000000
vt 0.770240 0.613332
vt 0.770240 0.473905
vt 0.789336 0.466110
vt 0.789336 0.613332
vt 0.770240 0.752758
vt 0.789336 0.760554
vt 0.845933 0.613332
vt 0.845933 0.473905
vt 0.865029 0.466110
vt 0.865029 0.613332
vt 0.845933 0.752758
vt 0.865029 0.760554
vt 0.839798 0.613332
vt 0.839798 0.752758
vt 0.820702 0.760554
vt 0.820702 0.613332
vt 0.839798 0.473905
vt 0.820702 0.466110
vt 0.795471 0.613332
vt 0.795471 0.473905
vt 0.814567 0.466110
vt 0.814567 0.613332
vt 0.795471 0.752758
vt 0.814567 0.760554
vt 0.232245 0.440068
vt 0.379468 0.379087
vt 0.395059 0.394679
vt 0.232245 0.462118
vt 0.440449 0.231865
vt 0.462499 0.231865
vt 0.085023 0.379087
vt 0.069432 0.394679
vt 0.379468 0.084643
vt 0.395059 0.069051
vt 0.024042 0.231865
vt 0.001992 0.231865
vt 0.232245 0.023661
vt 0.232245 0.001611
vt 0.085023 0.084643
vt 0.069432 0.069051
vt 0.871164 0.636719
vt 0.871164 0.473905
vt 0.890259 0.466110
vt 0.890259 0.636719
vt 0.909355 0.473905
vt 0.909355 0.636719
vt 0.871164 0.799533
vt 0.890259 0.807329
vt 0.909355 0.799533
vt 0.998008 0.517431
vt 0.998008 0.680245
vt 0.978913 0.688041
vt 0.978913 0.517431
vt 0.959817 0.680245
vt 0.959817 0.517431
vt 0.998008 0.354618
vt 0.978913 0.346822
vt 0.959817 0.354618
vt 0.975875 0.172221
vt 0.975875 0.335035
vt 0.956780 0.342830
vt 0.956780 0.172221
vt 0.937684 0.335035
vt 0.937684 0.172221
vt 0.975875 0.009407
vt 0.956780 0.001611
vt 0.937684 0.009407
vt 0.953682 0.636719
vt 0.953682 0.799533
vt 0.934586 0.807329
vt 0.934586 0.636719
vt 0.915490 0.799533
vt 0.915490 0.636719
vt 0.953682 0.473905
vt 0.934586 0.466110
vt 0.915490 0.473905
vt 0.700189 0.001611
vt 0.863003 0.069051
vt 0.847411 0.084643
vt 0.700189 0.023661
vt 0.930442 0.231865
vt 0.908392 0.231865
vt 0.847937 0.149230
vt 0.700027 0.115002
vt 0.537375 0.069051
vt 0.552967 0.084643
vt 0.863003 0.394679
vt 0.847411 0.379087
vt 0.877910 0.231865
vt 0.553586 0.149230
vt 0.469936 0.231865
vt 0.491985 0.231865
vt 0.700189 0.462118
vt 0.700189 0.440068
vt 0.847937 0.314499
vt 0.523612 0.231865
vt 0.537375 0.394678
vt 0.552967 0.379087
vt 0.700027 0.348728
vt 0.553586 0.314499
vt 0.674514 0.614019
vt 0.674514 0.466110
vt 0.764105 0.473864
vt 0.764105 0.614019
vt 0.674514 0.760461
vt 0.764105 0.752706
vt 0.115550 0.548744
vt 0.115550 0.466110
vt 0.205141 0.470485
vt 0.205141 0.548744
vt 0.115550 0.631379
vt 0.205141 0.627003
vt 0.668379 0.614019
vt 0.668379 0.760461
vt 0.578788 0.752706
vt 0.578788 0.614019
vt 0.668379 0.466110
vt 0.578788 0.473864
vt 0.019824 0.548744
vt 0.019824 0.466110
vt 0.109415 0.470485
vt 0.109415 0.548744
vt 0.019824 0.631379
vt 0.109415 0.627003
vt 0.292095 0.744962
vt 0.292095 0.605536
vt 0.366779 0.605536
vt 0.366779 0.683795
vt 0.292095 0.466110
vt 0.366779 0.527277
vt 0.211276 0.744962
vt 0.211276 0.605536
vt 0.285960 0.605536
vt 0.285960 0.683795
vt 0.211276 0.466110
vt 0.285960 0.527277
vt 0.447598 0.466677
vt 0.447598 0.606103
vt 0.372914 0.606265
vt 0.372914 0.466110
vt 0.447598 0.745530
vt 0.372914 0.744952
vt 0.511485 0.745530
vt 0.453733 0.606103
vt 0.540237 0.606265
vt 0.572653 0.744952
vt 0.511485 0.466677
vt 0.572653 0.466110
vn -0.337652 0.470635 0.815165
vn -0.337652 0.470636 0.815165
vn -0.337652 0.470636 0.815165
vn -0.337652 0.470635 0.815165
vn 0.337652 0.470635 0.815165
vn 0.337652 0.470635 0.815165
vn 0.337652 0.470635 0.815165
vn 0.337652 0.470635 0.815165
vn 0.815165 0.470635 0.337652
vn 0.815165 0.470635 0.337652
vn 0.815165 0.470635 0.337652
vn 0.815165 0.470635 0.337652
vn 0.815165 0.470635 -0.337652
vn 0.815165 0.470635 -0.337652
vn 0.815165 0.470635 -0.337652
vn 0.815165 0.470635 -0.337652
vn 0.337652 0.470636 -0.815165
vn 0.337652 0.470636 -0.815165
vn 0.337652 0.470636 -0.815165
vn 0.337652 0.470636 -0.815165
vn -0.337652 0.470636 -0.815165
vn -0.337652 0.470636 -0.815165
vn -0.337652 0.470636 -0.815165
vn -0.337652 0.470636 -0.815165
vn -0.815165 0.470635 -0.337652
vn -0.815165 0.470635 -0.337652
vn -0.815165 0.470635 -0.337652
vn -0.815165 0.470635 -0.337652
vn -0.815165 0.470635 0.337652
vn -0.815165 0.470635 0.337652
vn -0.815165 0.470635 0.337652
vn -0.815165 0.470635 0.337652
vn 0.000000 1.000000 -0.000000
vn 0.000000 1.000000 -0.000000
vn 0.000000 1.000000 -0.000000
vn 0.000000 1.000000 -0.000000
vn -0.000000 1.000000 -0.000000
vn -0.000000 1.000000 -0.000000
vn -0.000000 1.000000 -0.000000
vn -0.000000 1.000000 -0.000000
vn -0.000000 1.000000 0.000000
vn -0.000000 1.000000 0.000000
vn -0.000000 1.000000 0.000000
vn -0.000000 1.000000 0.000000
vn -0.000000 1.000000 0.000000
vn -0.000000 1.000000 0.000000
vn -0.000000 1.000000 0.000000
vn -0.000000 1.000000 0.000000
vn -0.000000 1.000000 0.000000
vn -0.000000 1.000000 0.000000
vn -0.000000 1.000000 0.000000
vn -0.000000 1.000000 0.000000
vn 0.000000 1.000000 0.000000
vn 0.000000 1.000000 0.000000
vn 0.000000 1.000000 0.000000
vn 0.000000 1.000000 0.000000
vn 0.000000 1.000000 0.000000
vn 0.000000 1.000000 0.000000
vn 0.000000 1.000000 0.000000
vn 0.000000 1.000000 0.000000
vn 0.000000 1.000000 -0.000000
vn 0.000000 1.000000 -0.000000
vn 0.000000 1.000000 -0.000000
vn 0.000000 1.000000 -0.000000
vn 0.337652 0.470635 -0.815165
vn 0.337652 0.470635 -0.815165
vn 0.337652 0.470635 -0.815165
vn 0.337652 0.470635 -0.815165
vn -0.337652 0.470635 -0.815165
vn -0.337652 0.470635 -0.815165
vn -0.337652 0.470635 -0.815165
vn -0.337652 0.470635 -0.815165
vn -0.815164 0.470636 -0.337652
vn -0.815165 0.470636 -0.337652
vn -0.815165 0.470636 -0.337652
vn -0.815165 0.470636 -0.337652
vn -0.815164 0.470636 0.337652
vn -0.815164 0.470636 0.337652
vn -0.815164 0.470636 0.337652
vn -0.815164 0.470636 0.337652
vn -0.337652 0.470635 0.815165
vn -0.337652 0.470635 0.815165
vn -0.337652 0.470636 0.815165
vn -0.337652 0.470636 0.815165
vn 0.337652 0.470635 0.815165
vn 0.337652 0.470635 0.815165
vn 0.337652 0.470635 0.815165
vn 0.337652 0.470635 0.815165
vn 0.815165 0.470636 0.337652
vn 0.815165 0.470636 0.337652
vn 0.815165 0.470636 0.337652
vn 0.815165 0.470636 0.337652
vn 0.815165 0.470635 -0.337652
vn 0.815165 0.470635 -0.337652
vn 0.815165 0.470635 -0.337652
vn 0.815165 0.470636 -0.337652
vn 0.337652 -0.470636 -0.815165
vn 0.337652 -0.470635 -0.815165
vn 0.337652 -0.470635 -0.815165
vn 0.337652 -0.470635 -0.815165
vn -0.337652 -0.470635 -0.815165
vn -0.337652 -0.470635 -0.815165
vn -0.337652 -0.470635 -0.815165
vn -0.337652 -0.470635 -0.815165
vn -0.815164 -0.470636 -0.337652
vn -0.815164 -0.470636 -0.337652
vn -0.815165 -0.470636 -0.337652
vn -0.815164 -0.470636 -0.337652
vn -0.815164 -0.470636 0.337652
vn -0.815164 -0.470636 0.337652
vn -0.815164 -0.470636 0.337652
vn -0.815164 -0.470636 0.337652
vn -0.337652 -0.470636 0.815165
vn -0.337652 -0.470636 0.815165
vn -0.337652 -0.470636 0.815165
vn -0.337652 -0.470636 0.815165
vn 0.337652 -0.470635 0.815165
vn 0.337652 -0.470635 0.815165
vn 0.337652 -0.470635 0.815165
vn 0.337652 -0.470635 0.815165
vn 0.815164 -0.470636 0.337652
vn 0.815164 -0.470636 0.337652
vn 0.815164 -0.470636 0.337652
vn 0.815165 -0.470636 0.337652
vn 0.815165 -0.470636 -0.337652
vn 0.815165 -0.470636 -0.337652
vn 0.815165 -0.470636 -0.337652
vn 0.815165 -0.470636 -0.337652
vn -0.000000 -1.000000 0.000000
vn -0.000000 -1.000000 0.000000
vn -0.000000 -1.000000 0.000000
vn -0.000000 -1.000000 0.000000
vn 0.000000 -1.000000 0.000000
vn 0.000000 -1.000000 0.000000
vn 0.000000 -1.000000 0.000000
vn 0.000000 -1.000000 0.000000
vn 0.000000 -1.000000 0.000000
vn 0.000000 -1.000000 0.000000
vn 0.000000 -1.000000 0.000000
vn 0.000000 -1.000000 0.000000
vn 0.000000 -1.000000 -0.000000
vn 0.000000 -1.000000 -0.000000
vn 0.000000 -1.000000 -0.000000
vn 0.000000 -1.000000 -0.000000
vn 0.000000 -1.000000 -0.000000
vn 0.000000 -1.000000 -0.000000
vn 0.000000 -1.000000 -0.000000
vn 0.000000 -1.000000 -0.000000
vn -0.000000 -1.000000 -0.000000
vn -0.000000 -1.000000 -0.000000
vn -0.000000 -1.000000 -0.000000
vn -0.000000 -1.000000 -0.000000
vn -0.000000 -1.000000 -0.000000
vn -0.000000 -1.000000 -0.000000
vn -0.000000 -1.000000 -0.000000
vn -0.000000 -1.000000 -0.000000
vn -0.000000 -1.000000 0.000000
vn -0.000000 -1.000000 0.000000
vn -0.000000 -1.000000 0.000000
vn -0.000000 -1.000000 0.000000
vn -0.224891 -0.067042 0.972075
vn -0.224891 -0.067042 0.972075
vn -0.224891 -0.067042 0.972075
vn -0.224891 -0.067042 0.972075
vn 0.227086 -0.067107 0.971560
vn 0.227086 -0.067107 0.971560
vn 0.227086 -0.067107 0.971560
vn 0.227086 -0.067107 0.971560
vn 0.937767 -0.106054 0.330675
vn 0.937767 -0.106054 0.330675
vn 0.937767 -0.106054 0.330676
vn 0.937767 -0.106054 0.330675
vn 0.937767 -0.106053 -0.330676
vn 0.937767 -0.106053 -0.330676
vn 0.937767 -0.106053 -0.330676
vn 0.937767 -0.106053 -0.330676
vn 0.227086 -0.067107 -0.971560
vn 0.227086 -0.067107 -0.971560
vn 0.227086 -0.067107 -0.971560
vn 0.227086 -0.067107 -0.971560
vn -0.224891 -0.067042 -0.972075
vn -0.224891 -0.067042 -0.972075
vn -0.224891 -0.067042 -0.972075
vn -0.224891 -0.067042 -0.972075
vn -0.937767 -0.106053 -0.330676
vn -0.937767 -0.106053 -0.330676
vn -0.937767 -0.106053 -0.330676
vn -0.937767 -0.106053 -0.330676
vn -0.937766 -0.106053 0.330677
vn -0.937766 -0.106053 0.330677
vn -0.937766 -0.106053 0.330677
vn -0.937766 -0.106053 0.330677
vn -0.017318 -0.998408 0.053681
vn -0.017318 -0.998408 0.053681
vn -0.017318 -0.998408 0.053681
vn -0.017318 -0.998408 0.053681
vn 0.223637 0.684945 -0.693424
vn 0.223637 0.684945 -0.693424
vn 0.223637 0.684945 -0.693424
vn 0.223637 0.684945 -0.693424
vn 0.017375 -0.998412 0.053590
vn 0.017375 -0.998412 0.053590
vn 0.017375 -0.998412 0.053590
vn 0.017375 -0.998412 0.053590
vn -0.224568 0.685417 -0.692656
vn -0.224568 0.685417 -0.692656
vn -0.224568 0.685417 -0.692656
vn -0.224568 0.685417 -0.692656
vn 0.143200 -0.988070 0.056664
vn 0.143200 -0.988070 0.056664
vn 0.143200 -0.988070 0.056665
vn 0.143200 -0.988070 0.056665
vn -0.880193 0.329372 -0.341723
vn -0.880193 0.329372 -0.341723
vn -0.880193 0.329372 -0.341723
vn -0.880193 0.329372 -0.341723
vn 0.143200 -0.988070 -0.056664
vn 0.143200 -0.988070 -0.056664
vn 0.143200 -0.988070 -0.056664
vn 0.143200 -0.988070 -0.056664
vn -0.880193 0.329372 0.341723
vn -0.880193 0.329372 0.341723
vn -0.880193 0.329372 0.341723
vn -0.880193 0.329372 0.341723
vn 0.017375 -0.998412 -0.053590
vn 0.017375 -0.998412 -0.053590
vn 0.017375 -0.998412 -0.053590
vn 0.017375 -0.998412 -0.053590
vn -0.224568 0.685417 0.692656
vn -0.224568 0.685417 0.692656
vn -0.224568 0.685417 0.692656
vn -0.224568 0.685417 0.692656
vn -0.017318 -0.998408 -0.053681
vn -0.017318 -0.998408 -0.053681
vn -0.017318 -0.998408 -0.053681
vn -0.017318 -0.998408 -0.053681
vn 0.223637 0.684945 0.693424
vn 0.223637 0.684945 0.693424
vn 0.223637 0.684945 0.693424
vn 0.223637 0.684945 0.693424
vn -0.148957 -0.987085 -0.058943
vn -0.148957 -0.987085 -0.058943
vn -0.148957 -0.987085 -0.058943
vn -0.148957 -0.987085 -0.058943
vn 0.884049 0.317264 0.343221
vn 0.884049 0.317264 0.343221
vn 0.884049 0.317264 0.343221
vn 0.884049 0.317264 0.343221
vn -0.148957 -0.987085 0.058943
vn -0.148957 -0.987085 0.058943
vn -0.148957 -0.987085 0.058943
vn -0.148957 -0.987085 0.058943
vn 0.884049 0.317264 -0.343221
vn 0.884049 0.317264 -0.343221
vn 0.884049 0.317264 -0.343221
vn 0.884049 0.317264 -0.343221
s off
g pTorus1
usemtl blinn1SG
f 2/1/1 1/2/2 9/3/3 10/4/4
f 3/5/5 2/1/6 10/4/7 11/6/8
f 4/7/9 3/8/10 11/9/11 12/10/12
f 5/11/13 4/7/14 12/10/15 13/12/16
f 6/13/17 5/14/18 13/15/19 14/16/20
f 7/17/21 6/13/22 14/16/23 15/18/24
f 8/19/25 7/20/26 15/21/27 16/22/28
f 1/23/29 8/19/30 16/22/31 9/24/32
f 10/25/33 9/26/34 17/27/35 18/28/36
f 11/31/37 10/25/38 18/28/39 19/32/40
f 12/35/41 11/31/42 19/32/43 20/36/44
f 13/39/45 12/35/46 20/36/47 21/40/48
f 14/37/49 13/39/50 21/40/51 22/38/52
f 15/33/53 14/37/54 22/38/55 23/34/56
f 16/29/57 15/33/58 23/34/59 24/30/60
f 9/26/61 16/29/62 24/30/63 17/27/64
f 18/41/65 17/42/66 25/43/67 26/44/68
f 19/47/69 18/41/70 26/44/71 27/48/72
f 20/50/73 19/51/74 27/52/75 28/53/76
f 21/56/77 20/50/78 28/53/79 29/57/80
f 22/59/81 21/60/82 29/61/83 30/62/84
f 23/65/85 22/59/86 30/62/87 31/66/88
f 24/68/89 23/69/90 31/70/91 32/71/92
f 17/74/93 24/68/94 32/71/95 25/75/96
f 26/44/97 25/43/98 33/45/99 34/46/100
f 27/48/101 26/44/102 34/46/103 35/49/104
f 28/53/105 27/52/106 35/54/107 36/55/108
f 29/57/109 28/53/110 36/55/111 37/58/112
f 30/62/113 29/61/114 37/63/115 38/64/116
f 31/66/117 30/62/118 38/64/119 39/67/120
f 32/71/121 31/70/122 39/72/123 40/73/124
f 25/75/125 32/71/126 40/73/127 33/76/128
f 34/77/129 33/78/130 41/79/131 42/80/132
f 35/85/133 34/77/134 42/80/135 43/86/136
f 36/91/137 35/85/138 43/86/139 44/92/140
f 37/97/141 36/91/142 44/92/143 45/98/144
f 38/93/145 37/97/146 45/98/147 46/94/148
f 39/87/149 38/93/150 46/94/151 47/88/152
f 40/81/153 39/87/154 47/88/155 48/82/156
f 33/78/157 40/81/158 48/82/159 41/79/160
f 50/101/161 49/102/162 51/103/163 52/104/164
f 53/105/165 50/101/166 52/104/167 54/106/168
f 55/107/169 53/108/170 54/109/171 56/110/172
f 57/111/173 55/107/174 56/110/175 58/112/176
f 59/113/177 57/114/178 58/115/179 60/116/180
f 61/117/181 59/113/182 60/116/183 62/118/184
f 63/119/185 61/120/186 62/121/187 64/122/188
f 49/123/189 63/119/190 64/122/191 51/124/192
f 42/80/193 41/79/194 49/83/195 50/84/196
f 1/137/197 2/138/198 52/139/199 51/140/200
f 43/86/201 42/80/202 50/84/203 53/90/204
f 2/138/205 3/141/206 54/142/207 52/139/208
f 44/92/209 43/86/210 53/90/211 55/96/212
f 3/125/213 4/126/214 56/127/215 54/128/216
f 45/98/217 44/92/218 55/96/219 57/100/220
f 4/126/221 5/129/222 58/130/223 56/127/224
f 46/94/225 45/98/226 57/100/227 59/99/228
f 5/143/229 6/144/230 60/145/231 58/146/232
f 47/88/233 46/94/234 59/99/235 61/95/236
f 6/144/237 7/147/238 62/148/239 60/145/240
f 48/82/241 47/88/242 61/95/243 63/89/244
f 7/131/245 8/132/246 64/133/247 62/134/248
f 41/79/249 48/82/250 63/89/251 49/83/252
f 8/132/253 1/135/254 51/136/255 64/133/256
g default
v 4.122997 8.649795 1.799471
v 4.122997 3.955978 -1.784133
v 4.122997 8.661506 1.784133
v 4.122997 3.967688 -1.799471
v -4.122997 8.661506 1.784133
v -4.122997 3.967688 -1.799471
v -4.122997 8.649795 1.799471
v -4.122997 3.955978 -1.784133
v -4.122997 8.649795 1.799471
v -4.122997 3.955978 -1.784133
v 4.122997 3.955978 -1.784133
v 4.122997 8.649795 1.799471
v 0.000000 -1.949655 0.717685
v 4.122997 6.302887 0.007669
v -4.122997 6.186466 -0.081215
v 0.025480 3.955978 -1.784133
v -0.067188 8.649795 1.799471
vt 0.855550 0.998008
vt 0.855550 0.583912
vt 0.887643 0.583912
vt 0.887643 0.998008
vt 0.001847 0.001992
vt 0.415943 0.001992
vt 0.415943 0.580211
vt 0.001847 0.580211
vt 0.893332 0.998008
vt 0.893332 0.583912
vt 0.925425 0.583912
vt 0.925425 0.998008
vt 0.423108 0.001992
vt 0.837204 0.001992
vt 0.837204 0.580211
vt 0.423108 0.580211
vt 0.844188 0.580211
vt 0.844188 0.001992
vt 0.876281 0.001992
vt 0.876281 0.580211
vt 0.882139 0.580211
vt 0.882139 0.001992
vt 0.914232 0.001992
vt 0.914232 0.580211
vt 0.423108 0.001992
vt 0.837204 0.001992
vt 0.837204 0.580211
vt 0.423108 0.580211
vt 0.630156 0.291101
vt 0.630156 0.580211
vt 0.640427 0.001992
vt 0.837204 0.292888
vt 0.423108 0.286390
vn 1.000000 0.000000 0.000000
vn 1.000000 0.000000 0.000000
vn 1.000000 0.000000 0.000000
vn 1.000000 0.000000 0.000000
vn 0.000000 0.606832 -0.794830
vn 0.000000 0.606832 -0.794830
vn 0.000000 0.606832 -0.794830
vn 0.000000 0.606832 -0.794830
vn -1.000000 -0.000000 -0.000000
vn -1.000000 -0.000000 -0.000000
vn -1.000000 -0.000000 -0.000000
vn -1.000000 -0.000000 -0.000000
vn -0.296698 -0.210479 0.931487
vn -0.000669 -0.607601 0.794242
vn -0.000000 -0.101533 0.994832
vn 0.000000 -0.794830 -0.606832
vn 0.000000 -0.794830 -0.606832
vn 0.000000 -0.794830 -0.606832
vn 0.000000 -0.794830 -0.606832
vn -0.000000 0.794816 0.606851
vn -0.000000 0.794816 0.606851
vn -0.000000 0.794816 0.606851
vn -0.000000 0.794816 0.606851
vn 0.000000 0.000000 0.000000
vn 0.000000 0.000000 0.000000
vn 0.000000 0.000000 0.000000
vn -0.000000 0.000000 0.000000
vn 0.000000 0.000000 0.000000
vn -0.000000 -0.000000 0.000000
vn -0.000000 -0.000000 0.000000
vn -0.000000 -0.000000 0.000000
vn -0.000000 -0.606832 0.794830
vn -0.000000 -0.000000 0.000000
vn 0.000000 0.000000 0.000000
vn 0.000000 0.000000 0.000000
vn 0.000000 0.000000 0.000000
vn 0.000000 0.000000 0.000000
vn 0.000000 0.000000 0.000000
vn 0.000000 0.000000 0.000000
vn 0.000000 0.000000 0.000000
vn 0.000000 0.000000 0.000000
vn 0.000000 0.000000 0.000000
vn 0.000000 0.000000 0.000000
vn -0.803874 -0.360943 0.472765
vn -0.573338 -0.624802 -0.530006
vn 0.000000 -0.390074 -0.920784
vn 0.598114 -0.628316 -0.497471
vn 0.279622 -0.204509 0.938077
vn 0.803874 -0.360943 0.472765
s off
g pCube1
usemtl lambert2SG
f 65/149/257 66/150/258 68/151/259 67/152/260
f 67/153/261 68/154/262 70/155/263 69/156/264
f 69/157/265 70/158/266 72/159/267 71/160/268
s 1
f 73/173/269 77/177/270 81/181/271
s off
f 66/165/272 72/166/273 70/167/274 68/168/275
f 71/169/276 65/170/277 67/171/278 69/172/279
f 71/161/280 72/162/281 74/174/282 79/179/283 73/173/284
f 72/162/285 66/163/286 75/175/287 80/180/288 74/174/289
f 66/163/290 65/164/291 76/176/292 78/178/293 75/175/294
f 65/164/295 71/161/296 73/173/297 81/181/298 76/176/299
s 1
f 77/177/270 79/179/300 74/174/301
f 77/177/270 80/180/302 75/175/303
f 76/176/304 77/177/270 78/178/305
f 78/178/305 77/177/270 75/175/303
f 73/173/269 79/179/300 77/177/270
f 77/177/270 74/174/301 80/180/302
f 81/181/271 77/177/270 76/176/304
