# This file uses centimeters as units for non-parametric coordinates.

mtllib LeverToBeMoved.mtl
g default
v 3.455008 -0.722763 9.418600
v 3.326878 -0.722763 9.418600
v 3.262813 -0.722763 9.529563
v 3.326878 -0.722763 9.640527
v 3.455008 -0.722763 9.640527
v 3.519072 -0.722763 9.529563
v 3.477073 5.212708 9.380382
v 3.304813 5.212708 9.380382
v 3.218683 5.212708 9.529563
v 3.304813 5.212708 9.678745
v 3.477073 5.212708 9.678745
v 3.563203 5.212708 9.529563
v 3.390943 -0.722763 9.529563
v 3.477073 3.783791 9.380382
v 3.563203 3.783791 9.529563
v 3.477073 3.783791 9.678745
v 3.304813 3.783791 9.678745
v 3.218683 3.783791 9.529563
v 3.304813 3.783791 9.380382
v 3.455008 3.607089 9.418600
v 3.326878 3.607089 9.418600
v 3.262813 3.607089 9.529563
v 3.326878 3.607089 9.640527
v 3.455008 3.607089 9.640527
v 3.519072 3.607089 9.529563
vt 0.578125 0.020934
vt 0.421875 0.020934
vt 0.343750 0.156250
vt 0.421875 0.291566
vt 0.578125 0.291566
vt 0.656250 0.156250
vt 0.375000 0.312500
vt 0.416667 0.312500
vt 0.458333 0.312500
vt 0.500000 0.312500
vt 0.541667 0.312500
vt 0.583333 0.312500
vt 0.625000 0.312500
vt 0.375000 0.688440
vt 0.416667 0.688440
vt 0.458333 0.688440
vt 0.500000 0.688440
vt 0.541667 0.688440
vt 0.583333 0.688440
vt 0.625000 0.688440
vt 0.500000 0.150000
vt 0.625000 0.615718
vt 0.375000 0.615718
vt 0.583333 0.615718
vt 0.541667 0.615718
vt 0.500000 0.615718
vt 0.458333 0.615718
vt 0.416667 0.615718
vt 0.625000 0.608755
vt 0.375000 0.608755
vt 0.416667 0.608755
vt 0.458333 0.608755
vt 0.500000 0.608755
vt 0.541667 0.608755
vt 0.583333 0.608755
vn 0.000000 -0.011789 -0.999931
vn 0.000000 -0.011789 -0.999931
vn 0.000000 -0.017070 -0.999854
vn 0.000000 -0.017070 -0.999854
vn -0.865965 -0.011789 -0.499965
vn -0.865965 -0.011789 -0.499965
vn -0.865899 -0.017070 -0.499927
vn -0.865899 -0.017070 -0.499927
vn -0.865965 -0.011789 0.499965
vn -0.865965 -0.011789 0.499965
vn -0.865899 -0.017070 0.499927
vn -0.865899 -0.017070 0.499927
vn -0.000000 -0.011789 0.999931
vn -0.000000 -0.011789 0.999931
vn 0.000000 -0.017070 0.999854
vn 0.000000 -0.017070 0.999854
vn 0.865965 -0.011789 0.499965
vn 0.865965 -0.011789 0.499965
vn 0.865899 -0.017070 0.499927
vn 0.865899 -0.017070 0.499927
vn 0.865965 -0.011789 -0.499965
vn 0.865965 -0.011789 -0.499965
vn 0.865899 -0.017070 -0.499927
vn 0.865899 -0.017070 -0.499927
vn 0.000000 -1.000000 0.000001
vn 0.000000 -1.000000 0.000001
vn 0.000000 -1.000000 0.000000
vn 0.000000 -1.000000 0.000000
vn 0.000000 -1.000000 -0.000001
vn 0.000000 -1.000000 -0.000001
vn 0.000000 -1.000000 0.000000
vn 0.000000 1.000000 0.000001
vn 0.000000 1.000000 0.000001
vn 0.000000 1.000000 0.000001
vn 0.000000 1.000000 0.000001
vn 0.000000 1.000000 0.000001
vn 0.000000 1.000000 0.000001
vn 0.866025 0.000000 -0.500000
vn 0.866025 0.000000 -0.500000
vn 0.866025 0.000000 0.500000
vn 0.866025 0.000000 0.500000
vn 0.000000 0.000000 1.000000
vn 0.000000 0.000000 1.000000
vn -0.866026 0.000000 0.500000
vn -0.866026 0.000000 0.500000
vn -0.866025 0.000000 -0.500000
vn -0.866025 0.000000 -0.500000
vn 0.000000 0.000000 -1.000000
vn 0.000000 0.000000 -1.000000
vn 0.000000 0.000000 -1.000000
vn 0.000000 0.000000 -1.000000
vn -0.866025 0.000000 -0.500000
vn -0.866025 0.000000 -0.500000
vn -0.866026 0.000000 0.500000
vn -0.866026 0.000000 0.500000
vn -0.000000 0.000000 1.000000
vn -0.000000 0.000000 1.000000
vn 0.866025 0.000000 0.500000
vn 0.866025 0.000000 0.500000
vn 0.866026 0.000000 -0.500000
vn 0.866026 0.000000 -0.500000
s 1
g pasted__pasted__pCylinder1 pasted__group2 group21
usemtl initialShadingGroup
f 20/30/1 21/31/2 19/28/3 14/23/4
s 2
f 21/31/5 22/32/6 18/27/7 19/28/8
s 3
f 22/32/9 23/33/10 17/26/11 18/27/12
s 4
f 23/33/13 24/34/14 16/25/15 17/26/16
s 5
f 24/34/17 25/35/18 15/24/19 16/25/20
s 6
f 25/35/21 20/29/22 14/22/23 15/24/24
s 7
f 2/2/25 1/1/26 13/21/27
f 3/3/28 2/2/25 13/21/27
f 4/4/29 3/3/28 13/21/27
f 5/5/30 4/4/29 13/21/27
f 6/6/31 5/5/30 13/21/27
f 1/1/26 6/6/31 13/21/27
s off
f 8/15/32 9/16/33 10/17/34 11/18/35 12/19/36 7/14/37
s 6
f 15/24/24 14/22/23 7/20/38 12/19/39
s 5
f 16/25/20 15/24/19 12/19/40 11/18/41
s 4
f 17/26/16 16/25/15 11/18/42 10/17/43
s 3
f 18/27/12 17/26/11 10/17/44 9/16/45
s 2
f 19/28/8 18/27/7 9/16/46 8/15/47
s 1
f 14/23/4 19/28/3 8/15/48 7/14/49
f 1/7/50 2/8/51 21/31/2 20/30/1
s 2
f 2/8/52 3/9/53 22/32/6 21/31/5
s 3
f 3/9/54 4/10/55 23/33/10 22/32/9
s 4
f 4/10/56 5/11/57 24/34/14 23/33/13
s 5
f 5/11/58 6/12/59 25/35/18 24/34/17
s 6
f 6/12/60 1/13/61 20/29/22 25/35/21
