# This file uses centimeters as units for non-parametric coordinates.

mtllib pipe.mtl
g default
v -5.887233 15.606251 -1.324890
v -5.887233 16.664040 0.131033
v -5.887233 16.664040 1.930652
v -5.887233 15.606250 3.386574
v -5.887233 13.894711 3.942686
v -5.887233 12.183172 3.386574
v -5.887233 11.125383 1.930651
v -5.887233 11.125383 0.131032
v -5.887233 12.183172 -1.324890
v -5.887233 13.894711 -1.881002
v 134.791311 15.606251 -1.324890
v 134.791311 16.664040 0.131033
v 134.791311 16.664040 1.930652
v 134.791311 15.606250 3.386574
v 134.791311 13.894711 3.942686
v 134.791311 12.183172 3.386574
v 134.791311 11.125383 1.930651
v 134.791311 11.125383 0.131032
v 134.791311 12.183172 -1.324890
v 134.791311 13.894711 -1.881002
v -5.887233 13.894711 1.030842
v 134.791311 13.894711 1.030842
vt 0.626409 0.064409
vt 0.548284 0.007647
vt 0.451716 0.007647
vt 0.373591 0.064409
vt 0.343750 0.156250
vt 0.373591 0.248091
vt 0.451716 0.304853
vt 0.548284 0.304853
vt 0.626409 0.248091
vt 0.656250 0.156250
vt 0.375000 0.312500
vt 0.400000 0.312500
vt 0.425000 0.312500
vt 0.450000 0.312500
vt 0.475000 0.312500
vt 0.500000 0.312500
vt 0.525000 0.312500
vt 0.550000 0.312500
vt 0.575000 0.312500
vt 0.600000 0.312500
vt 0.625000 0.312500
vt 0.375000 0.688440
vt 0.400000 0.688440
vt 0.425000 0.688440
vt 0.450000 0.688440
vt 0.475000 0.688440
vt 0.500000 0.688440
vt 0.525000 0.688440
vt 0.550000 0.688440
vt 0.575000 0.688440
vt 0.600000 0.688440
vt 0.625000 0.688440
vt 0.626409 0.751909
vt 0.548284 0.695147
vt 0.451716 0.695147
vt 0.373591 0.751909
vt 0.343750 0.843750
vt 0.373591 0.935591
vt 0.451716 0.992353
vt 0.548284 0.992353
vt 0.626409 0.935591
vt 0.656250 0.843750
vt 0.500000 0.150000
vt 0.500000 0.837500
vn -0.000000 0.809017 -0.587785
vn -0.000000 0.809017 -0.587785
vn -0.000000 0.809017 -0.587785
vn -0.000000 0.809017 -0.587785
vn -0.000000 1.000000 0.000000
vn -0.000000 1.000000 0.000000
vn -0.000000 1.000000 0.000000
vn -0.000000 1.000000 0.000000
vn -0.000000 0.809017 0.587785
vn -0.000000 0.809017 0.587785
vn -0.000000 0.809017 0.587785
vn -0.000000 0.809017 0.587785
vn -0.000000 0.309017 0.951057
vn -0.000000 0.309017 0.951057
vn -0.000000 0.309017 0.951057
vn -0.000000 0.309017 0.951057
vn -0.000000 -0.309017 0.951057
vn -0.000000 -0.309017 0.951057
vn -0.000000 -0.309017 0.951057
vn -0.000000 -0.309017 0.951057
vn 0.000000 -0.809017 0.587785
vn 0.000000 -0.809017 0.587785
vn 0.000000 -0.809017 0.587785
vn 0.000000 -0.809017 0.587785
vn 0.000000 -1.000000 0.000000
vn 0.000000 -1.000000 0.000000
vn 0.000000 -1.000000 0.000000
vn 0.000000 -1.000000 0.000000
vn 0.000000 -0.809017 -0.587785
vn 0.000000 -0.809017 -0.587785
vn 0.000000 -0.809017 -0.587785
vn 0.000000 -0.809017 -0.587785
vn 0.000000 -0.309017 -0.951057
vn 0.000000 -0.309017 -0.951057
vn 0.000000 -0.309017 -0.951057
vn 0.000000 -0.309017 -0.951057
vn 0.000000 0.309017 -0.951057
vn 0.000000 0.309017 -0.951057
vn 0.000000 0.309017 -0.951057
vn 0.000000 0.309017 -0.951057
vn -1.000000 0.000001 -0.000000
vn -1.000000 -0.000000 -0.000000
vn -1.000000 -0.000000 -0.000000
vn -1.000000 0.000001 -0.000000
vn -1.000000 -0.000000 -0.000000
vn -1.000000 -0.000000 -0.000000
vn -1.000000 -0.000002 -0.000000
vn -1.000000 -0.000002 -0.000000
vn -1.000000 -0.000001 -0.000000
vn -1.000000 -0.000000 -0.000000
vn -1.000000 -0.000000 -0.000000
vn 1.000000 -0.000003 0.000000
vn 1.000000 -0.000003 0.000000
vn 1.000000 -0.000001 0.000000
vn 1.000000 0.000000 0.000000
vn 1.000000 0.000003 0.000000
vn 1.000000 -0.000000 0.000000
vn 1.000000 -0.000003 0.000000
vn 1.000000 -0.000003 0.000000
vn 1.000000 -0.000003 0.000000
vn 1.000000 0.000000 0.000000
vn 1.000000 0.000000 0.000000
s off
g pCylinder1
usemtl lambert3SG
f 1/11/1 2/12/2 12/23/3 11/22/4
f 2/12/5 3/13/6 13/24/7 12/23/8
f 3/13/9 4/14/10 14/25/11 13/24/12
f 4/14/13 5/15/14 15/26/15 14/25/16
f 5/15/17 6/16/18 16/27/19 15/26/20
f 6/16/21 7/17/22 17/28/23 16/27/24
f 7/17/25 8/18/26 18/29/27 17/28/28
f 8/18/29 9/19/30 19/30/31 18/29/32
f 9/19/33 10/20/34 20/31/35 19/30/36
f 10/20/37 1/21/38 11/32/39 20/31/40
s 1
f 2/2/41 1/1/42 21/43/43
f 3/3/44 2/2/41 21/43/43
f 4/4/45 3/3/44 21/43/43
f 5/5/46 4/4/45 21/43/43
f 6/6/47 5/5/46 21/43/43
f 7/7/48 6/6/47 21/43/43
f 8/8/49 7/7/48 21/43/43
f 9/9/50 8/8/49 21/43/43
f 10/10/51 9/9/50 21/43/43
f 1/1/42 10/10/51 21/43/43
s 2
f 11/41/52 12/40/53 22/44/54
f 12/40/53 13/39/55 22/44/54
f 13/39/55 14/38/56 22/44/54
f 14/38/56 15/37/57 22/44/54
f 15/37/57 16/36/58 22/44/54
f 16/36/58 17/35/59 22/44/54
f 17/35/59 18/34/60 22/44/54
f 18/34/60 19/33/61 22/44/54
f 19/33/61 20/42/62 22/44/54
f 20/42/62 11/41/52 22/44/54
g default
v 65.609907 13.509452 5.603462
v 69.237887 15.039126 5.170528
v 67.168170 15.069957 5.409515
v 70.670538 18.856011 4.079749
v 65.609907 15.227382 2.182439
v 70.380480 15.227382 2.182439
v 65.609907 13.509452 2.182439
v 69.502574 14.704146 1.841916
vt 0.375000 0.000000
vt 0.625000 0.000000
vt 0.375000 0.250000
vt 0.625000 0.250000
vt 0.375000 0.500000
vt 0.625000 0.500000
vt 0.375000 0.750000
vt 0.625000 0.750000
vt 0.375000 1.000000
vt 0.625000 1.000000
vt 0.875000 0.000000
vt 0.875000 0.250000
vt 0.125000 0.000000
vt 0.125000 0.250000
vn 0.115538 0.169567 0.978723
vn 0.115538 0.169567 0.978723
vn 0.115538 0.169567 0.978723
vn 0.115538 0.169567 0.978723
vn -0.434155 0.810778 -0.392617
vn -0.434155 0.810778 -0.392617
vn -0.434155 0.810778 -0.392617
vn -0.434155 0.810778 -0.392617
vn -0.062604 0.173847 -0.982781
vn -0.062604 0.173847 -0.982781
vn -0.062604 0.173847 -0.982781
vn -0.062604 0.173847 -0.982781
vn 0.345430 -0.936523 0.060025
vn 0.345430 -0.936523 0.060025
vn 0.345430 -0.936523 0.060025
vn 0.345430 -0.936523 0.060025
vn 0.861746 -0.406231 0.303923
vn 0.861746 -0.406231 0.303923
vn 0.861746 -0.406231 0.303923
vn 0.861746 -0.406231 0.303923
vn -0.876898 0.429557 0.215710
vn -0.876898 0.429557 0.215710
vn -0.876898 0.429557 0.215710
vn -0.876898 0.429557 0.215710
s off
g pCube3
usemtl lambert4SG
f 23/45/63 24/46/64 26/48/65 25/47/66
f 25/47/67 26/48/68 28/50/69 27/49/70
f 27/49/71 28/50/72 30/52/73 29/51/74
f 29/51/75 30/52/76 24/54/77 23/53/78
f 24/46/79 30/55/80 28/56/81 26/48/82
f 29/57/83 23/45/84 25/47/85 27/58/86
g default
v 43.586449 13.228153 3.982178
v 43.076051 18.300260 4.481543
v 45.194971 12.138857 4.555236
v 41.481673 11.112875 4.442449
v 44.425488 15.529724 0.673879
v 40.815728 15.106251 3.763971
v 44.587434 17.188512 1.090384
v 41.309034 15.772667 3.076229
vt 0.375000 0.000000
vt 0.625000 0.000000
vt 0.375000 0.250000
vt 0.625000 0.250000
vt 0.375000 0.500000
vt 0.625000 0.500000
vt 0.375000 0.750000
vt 0.625000 0.750000
vt 0.375000 1.000000
vt 0.625000 1.000000
vt 0.875000 0.000000
vt 0.875000 0.250000
vt 0.125000 0.000000
vt 0.125000 0.250000
vn 0.151489 0.063895 0.986392
vn 0.151489 0.063895 0.986392
vn 0.151489 0.063895 0.986392
vn 0.151489 0.063895 0.986392
vn -0.221733 -0.543171 -0.809815
vn -0.221733 -0.543171 -0.809815
vn -0.221733 -0.543171 -0.809815
vn -0.221733 -0.543171 -0.809815
vn -0.604840 0.077999 -0.792518
vn -0.604840 0.077998 -0.792518
vn -0.604840 0.077998 -0.792518
vn -0.604840 0.077998 -0.792518
vn 0.723779 0.682939 0.098684
vn 0.723779 0.682939 0.098684
vn 0.723779 0.682939 0.098684
vn 0.723779 0.682939 0.098684
vn -0.557623 0.214456 0.801913
vn -0.557623 0.214456 0.801913
vn -0.557623 0.214456 0.801913
vn -0.557623 0.214457 0.801913
vn 0.759474 0.427707 0.490169
vn 0.759474 0.427707 0.490169
vn 0.759474 0.427707 0.490169
vn 0.759474 0.427707 0.490169
s off
g pasted__pCube3 group12
usemtl pasted__lambert4SG
f 31/59/87 32/60/88 34/62/89 33/61/90
f 33/61/91 34/62/92 36/64/93 35/63/94
f 35/63/95 36/64/96 38/66/97 37/65/98
f 37/65/99 38/66/100 32/68/101 31/67/102
f 32/60/103 38/69/104 36/70/105 34/62/106
f 37/71/107 31/59/108 33/61/109 35/72/110
